<svg width="40" height="40" viewBox="0 0 40 40" fill="none" xmlns="http://www.w3.org/2000/svg">
<path d="M20 0.625C9.29227 0.625 0.625 9.29055 0.625 20C0.625 30.7077 9.29055 39.375 20 39.375C23.762 39.375 27.4486 38.2703 30.5787 36.2326C31.5166 35.622 31.7213 34.3351 31.0125 33.4691L30.2174 32.4978C29.6181 31.7657 28.5628 31.5863 27.7664 32.0971C25.4625 33.5748 22.7589 34.375 20 34.375C12.0736 34.375 5.625 27.9264 5.625 20C5.625 12.0736 12.0736 5.625 20 5.625C27.8234 5.625 34.375 10.1265 34.375 18.125C34.375 21.1552 32.7271 24.3548 29.8305 24.6635C28.4751 24.628 28.5094 23.6591 28.7777 22.3179L30.6084 12.8562C30.8323 11.6992 29.9459 10.625 28.7676 10.625H25.2534C24.994 10.625 24.7436 10.7205 24.55 10.8933C24.3565 11.0661 24.2333 11.3041 24.2041 11.562L24.2033 11.5691C23.0551 10.1706 21.0433 9.86797 19.518 9.86797C13.6915 9.86797 8.75 14.73 8.75 21.7008C8.75 26.8026 11.6238 29.9719 16.25 29.9719C18.3581 29.9719 20.732 28.7502 22.1087 26.9771C22.8526 29.6415 25.2816 29.6414 27.6329 29.6414C36.1413 29.6414 39.375 24.0467 39.375 18.125C39.375 7.47289 30.783 0.625 20 0.625ZM18.3063 24.4086C16.568 24.4086 15.4883 23.188 15.4883 21.2234C15.4883 17.7083 17.8929 15.5414 20.0688 15.5414C21.8103 15.5414 22.8501 16.7321 22.8501 18.7266C22.8501 22.247 20.2036 24.4086 18.3063 24.4086Z" fill="#8F97A3"/>
</svg>
