<svg width="40" height="46" viewBox="0 0 40 46" fill="none" xmlns="http://www.w3.org/2000/svg">
<path d="M8.95357 40.0012H0.660714V13.2959H8.95357V40.0012ZM4.80268 9.65303C2.15089 9.65303 0 7.4566 0 4.80481C1.89803e-08 3.53106 0.505995 2.30949 1.40667 1.40881C2.30735 0.508131 3.52893 0.00213623 4.80268 0.00213623C6.07643 0.00213623 7.29801 0.508131 8.19868 1.40881C9.09936 2.30949 9.60536 3.53106 9.60536 4.80481C9.60536 7.4566 7.45357 9.65303 4.80268 9.65303ZM39.9911 40.0012H31.7161V27.0012C31.7161 23.903 31.6536 19.9298 27.4045 19.9298C23.0929 19.9298 22.4321 23.2959 22.4321 26.778V40.0012H14.1482V13.2959H22.1018V16.9387H22.2179C23.325 14.8405 26.0295 12.6262 30.0643 12.6262C38.4571 12.6262 40 18.153 40 25.3316V40.0012H39.9911Z" fill="#8F97A3"/>
</svg>
