<svg width="55" height="55" viewBox="0 0 55 55" fill="none" xmlns="http://www.w3.org/2000/svg">
<path d="M21.9416 29.6076C22.5516 29.5302 23.4257 29.2369 23.28 28.0888C23.2709 28.017 23.2436 27.8018 23.104 27.5643C22.9299 25.6177 26.1558 18.8647 25.7459 15.6356C25.4635 13.4111 19.1422 10.7137 17.4559 10.9278C11.1412 11.7294 2.20533 21.1759 2.88396 26.5218C3.70833 33.0159 10.9592 33.8454 16.1621 35.7733C14.9233 37.7899 7.92863 39.5528 8.15701 39.3415C8.13712 38.3232 7.11318 37.7241 6.18034 37.8425C5.29703 38.064 3.90733 40.9018 4.16239 42.911C4.49942 45.566 10.0787 47.3004 13.5231 46.8631C17.3263 46.3803 24.124 42.4915 24.8394 38.9373C25.1903 37.1063 25.2462 35.8233 25.1323 34.9263C24.7406 31.8407 18.0177 30.288 13.8883 29.0622C12.8558 28.6829 12.73 28.5531 12.7072 28.3737C12.5979 27.5126 12.9681 26.4083 13.5849 25.2363C15.5673 27.3544 18.7843 30.0084 21.9416 29.6076ZM38.8431 29.1391C38.645 28.7268 38.9748 27.5912 39.1394 26.8776C39.4196 25.639 39.8126 24.7141 39.676 23.6377C39.4118 21.5568 35.238 20.5554 33.419 19.4374C33.619 18.4277 33.7341 17.611 33.6612 17.037C33.2968 14.1667 26.5905 11.8827 23.8637 12.2288C23.3614 12.2926 22.6187 13.3348 22.6779 13.8012C22.7508 14.3753 23.0834 14.6976 23.2815 15.1099C23.3111 16.4915 22.7563 19.5879 22.0363 23.1062C21.032 28.1189 19.9036 33.8766 20.2771 36.8186C20.7189 40.2988 24.7338 42.6328 27.8552 42.2366C28.501 42.1546 29.8775 41.7976 31.1937 40.391C31.9113 40.2999 33.552 42.0238 35.7406 41.746C38.0009 41.4591 42.1649 32.6183 42.5528 31.366C42.5927 31.1057 42.6639 30.805 42.6365 30.5898C42.4452 29.0829 40.21 28.4187 40.21 28.4187L38.8431 29.1391ZM50.4986 26.8575C51.2532 25.0482 51.7163 23.2395 51.5933 22.2708C51.1242 18.5752 43.5107 15.7502 40.4251 16.1419C35.1509 16.8114 34.4271 30.0642 34.7232 32.3964C35.4519 38.137 40.4281 41.151 45.8457 40.4632C49.2542 40.0305 55.2753 33.4696 54.7287 29.1641C54.5055 27.4061 51.6085 27.8467 50.4986 26.8575Z" fill="#A6B9B2"/>
<path d="M17.1823 13.9426C16.8475 13.9851 16.3679 14.2282 15.7437 14.672C15.1404 15.0889 14.4686 15.6359 13.7282 16.3132C12.9878 16.9905 12.2342 17.7546 11.4672 18.6054C10.7242 19.4532 10.0559 20.3157 9.46246 21.1931C8.869 22.0705 8.39514 22.9327 8.04088 23.7797C7.71053 24.6237 7.58635 25.3686 7.66833 26.0144C7.7412 26.5885 8.09048 27.0424 8.71616 27.3762C9.36575 27.7069 10.0317 27.9748 10.7139 28.1798C12.5333 28.7266 14.0235 29.1694 15.1845 29.5081C16.3664 29.8198 17.3045 30.1261 17.9989 30.4268C18.7172 30.7245 19.2307 31.036 19.5394 31.3614C19.845 31.6629 20.0297 32.0648 20.0934 32.5671C20.145 32.9737 20.149 33.4836 20.1053 34.0967C20.0825 34.6829 19.9912 35.3994 19.8313 36.246C19.6654 37.0448 19.1944 37.8338 18.4183 38.6128C17.6661 39.3888 16.7614 40.1113 15.7039 40.7802C14.6705 41.4461 13.5859 41.997 12.4503 42.4328C11.3178 42.8925 10.309 43.1785 9.42396 43.2909C7.91705 43.4822 6.84032 43.4244 6.19376 43.1176C5.55023 42.8348 5.18293 42.3345 5.09184 41.617C5.04325 41.2342 5.05143 40.82 5.11638 40.3743C5.18132 39.9286 5.27473 39.5157 5.39662 39.1356C5.54243 38.7526 5.69735 38.4412 5.86137 38.2017C6.02236 37.9382 6.1731 37.7854 6.31357 37.7433C6.45709 37.725 6.5932 37.7442 6.7219 37.8008C6.85061 37.8574 6.92103 37.9335 6.93318 38.0292C6.93925 38.077 6.9364 38.1503 6.92463 38.249C6.91285 38.3477 6.91304 38.4449 6.92519 38.5406C6.9734 38.7289 7.16208 38.8751 7.49125 38.9791C7.84434 39.0801 8.47535 39.0729 9.38427 38.9576C10.0062 38.8786 10.7684 38.6603 11.6708 38.3027C12.5972 37.9421 13.4787 37.5142 14.3151 37.0192C15.1515 36.5241 15.8518 36.0099 16.416 35.4765C17.0042 34.94 17.2724 34.4685 17.2208 34.0619C17.1996 33.8944 17.0722 33.7526 16.8387 33.6364C16.6261 33.4933 16.2669 33.3445 15.7612 33.1899C15.2794 33.0323 14.6241 32.8482 13.7953 32.6374C12.9874 32.3997 11.964 32.0921 10.7252 31.7147C9.76463 31.4235 8.88628 31.1096 8.09013 30.7732C7.29095 30.4129 6.59333 29.991 5.99727 29.5077C5.4221 28.9974 4.94545 28.4017 4.56733 27.7205C4.18617 27.0155 3.93486 26.1846 3.81341 25.2278C3.71017 24.4145 3.83854 23.5111 4.1985 22.5176C4.55847 21.524 5.07543 20.5226 5.74938 19.5135C6.44421 18.4774 7.25276 17.4755 8.17501 16.5078C9.11814 15.5131 10.1108 14.6215 11.153 13.833C12.1922 13.0205 13.2496 12.3516 14.3252 11.8262C15.4248 11.2977 16.4649 10.9712 17.4456 10.8468C17.6848 10.8164 17.9855 10.8876 18.3477 11.0604C18.7068 11.2092 19.0616 11.4194 19.412 11.6908C19.7594 11.9384 20.05 12.2175 20.2839 12.528C20.5386 12.8117 20.6797 13.0611 20.707 13.2764C20.7708 13.7787 20.7375 14.3784 20.6073 15.0754C20.5009 15.7695 20.3394 16.507 20.1225 17.2879C19.9266 18.0419 19.6978 18.8244 19.4362 19.6354C19.1715 20.4224 18.9262 21.1705 18.7003 21.8797C18.4983 22.5859 18.3261 23.2397 18.1837 23.8411C18.0622 24.4155 18.0242 24.8821 18.0697 25.2409C18.0849 25.3605 18.1105 25.4666 18.1466 25.5593C18.2035 25.625 18.2351 25.6817 18.2411 25.7296C18.2563 25.8492 18.2176 25.927 18.1249 25.963C18.0323 25.9991 17.9381 26.0232 17.8425 26.0354C17.5076 26.0779 17.1367 26.0277 16.7297 25.885C16.3435 25.7152 15.9753 25.4946 15.6249 25.2232C15.2714 24.9278 14.9597 24.5785 14.6898 24.1752C14.4438 23.769 14.2934 23.3506 14.2388 22.92C14.2024 22.633 14.2525 22.2621 14.3892 21.8072C14.5228 21.3285 14.7013 20.8197 14.9246 20.281C15.1448 19.7183 15.3874 19.1407 15.6525 18.548C15.9414 17.9524 16.196 17.3732 16.4162 16.8105C16.6574 16.2209 16.8447 15.6867 16.9784 15.208C17.133 14.7023 17.2009 14.2805 17.1823 13.9426ZM35.9399 26.9462C36.2212 27.0564 36.4786 27.1695 36.7121 27.2857C36.9187 27.381 37.1058 27.5152 37.2736 27.6884C37.4654 27.8585 37.5734 28.0392 37.5977 28.2305C37.6068 28.3023 37.5965 28.413 37.5669 28.5625C37.4955 28.766 37.3482 29.1372 37.1249 29.6759C36.9016 30.2146 36.6157 30.8342 36.2672 31.5347C35.9425 32.2322 35.5731 32.9596 35.1588 33.717C34.7446 34.4744 34.3243 35.184 33.8979 35.8457C33.4924 36.4805 33.0867 37.0181 32.6808 37.4585C32.2988 37.8959 31.9524 38.1343 31.6414 38.1738C31.2826 38.2193 30.9684 38.1377 30.6989 37.9288C30.4293 37.72 30.1866 37.4349 29.9705 37.0734C29.7754 36.685 29.6116 36.2562 29.4791 35.7869C29.3675 35.2907 29.2783 34.7794 29.2115 34.2532C29.1629 33.8705 29.1483 33.2769 29.1677 32.4724C29.1841 31.644 29.2227 30.7033 29.2835 29.6505C29.3682 28.5947 29.4707 27.4879 29.5911 26.3303C29.7354 25.1697 29.9113 24.0658 30.1186 23.0187C29.5723 23.5013 29.0143 24.1797 28.4448 25.054C27.8722 25.9045 27.37 26.831 26.9383 27.8337C26.5066 28.8364 26.1631 29.8643 25.908 30.9175C25.6737 31.9438 25.6112 32.8874 25.7205 33.7485C25.7903 34.2986 25.8856 34.8577 26.0063 35.4257C26.1509 35.9906 26.3508 36.5121 26.6059 36.9901C26.1765 37.628 25.6719 38.0566 25.0921 38.276C24.5124 38.4954 24.067 38.6249 23.7561 38.6644C23.0385 38.7554 22.4743 38.5233 22.0635 37.9678C21.6289 37.4154 21.3432 36.601 21.2065 35.5246C21.1033 34.7113 21.1193 33.6885 21.2545 32.4561C21.3658 31.2268 21.5382 29.9046 21.7718 28.4896C22.0053 27.0746 22.2702 25.6191 22.5664 24.1232C22.8626 22.6274 23.1336 21.2198 23.3793 19.9004C23.6459 18.5541 23.8574 17.3485 24.0138 16.2836C24.1703 15.2186 24.2375 14.408 24.2155 13.8518C24.167 13.4691 24.0588 13.1912 23.891 13.018C23.7232 12.8449 23.6286 12.6746 23.6074 12.5072C23.6013 12.4593 23.6296 12.395 23.6922 12.3141C23.7518 12.2093 23.8056 12.1539 23.8534 12.1478C24.3796 12.081 24.9165 12.0979 25.464 12.1986C26.0084 12.2753 26.5021 12.4314 26.9452 12.6668C27.3852 12.8783 27.7611 13.1587 28.0728 13.508C28.3845 13.8573 28.5677 14.2472 28.6223 14.6777C28.6679 15.0365 28.6359 15.551 28.5266 16.2211C28.4142 16.8673 28.2421 17.6183 28.0105 18.474C27.8028 19.3267 27.5579 20.2693 27.2757 21.3016C27.0145 22.3069 26.7458 23.3497 26.4698 24.4298C26.7591 24.0285 27.1319 23.5194 27.5883 22.9024C28.0686 22.2825 28.552 21.6864 29.0383 21.1143C29.5456 20.5152 30.0157 20.0059 30.4485 19.5864C30.9022 19.1399 31.2606 18.8999 31.5237 18.8665C31.8108 18.8301 32.1219 18.8878 32.4571 19.0397C32.8133 19.1646 33.1396 19.342 33.4361 19.5717C33.7565 19.7983 34.0217 20.0685 34.2317 20.3821C34.4655 20.6927 34.6007 20.9915 34.6371 21.2785C34.6523 21.3981 34.6154 21.6823 34.5266 22.1311C34.4377 22.5798 34.3251 23.1288 34.1888 23.778C34.0494 24.4033 33.9057 25.09 33.7576 25.8379C33.6095 26.5858 33.4718 27.3203 33.3446 28.0413C33.2174 28.7623 33.12 29.4309 33.0524 30.0471C32.9818 30.6393 32.9692 31.1149 33.0147 31.4737C33.0542 31.7846 33.1577 31.9294 33.3251 31.9082C33.5165 31.8839 33.7522 31.6352 34.0325 31.1622C34.3127 30.6891 34.5868 30.1682 34.8549 29.5995C35.1438 29.0038 35.3895 28.4501 35.5919 27.9383C35.7912 27.4026 35.9072 27.0719 35.9399 26.9462ZM48.1978 25.3902C48.4522 25.4794 48.6857 25.5956 48.8983 25.7388C49.0839 25.861 49.2487 26.0102 49.3926 26.1864C49.5604 26.3595 49.6595 26.5657 49.6898 26.8049C49.7081 26.9484 49.683 27.1339 49.6146 27.3613C49.5702 27.5857 49.4929 27.8385 49.3828 28.1199C49.2727 28.4012 49.1522 28.696 49.0212 29.0043C48.8902 29.3126 48.7696 29.6074 48.6595 29.8887C48.3022 30.7118 47.8701 31.5201 47.3632 32.3136C46.8802 33.104 46.3403 33.8288 45.7435 34.4879C45.1675 35.12 44.53 35.6505 43.831 36.0795C43.159 36.5294 42.4642 36.7999 41.7466 36.891C39.8331 37.1339 38.3968 36.7329 37.4378 35.688C36.4997 34.6162 35.9046 33.0876 35.6526 31.1023C35.6071 30.7436 35.5909 30.138 35.6043 29.2856C35.6176 28.4333 35.6651 27.4672 35.7468 26.3874C35.8524 25.3046 36.0132 24.1784 36.2293 23.0086C36.4423 21.815 36.7288 20.7213 37.0888 19.7278C37.4727 18.7311 37.9256 17.8959 38.4477 17.222C38.9937 16.5451 39.6494 16.158 40.4148 16.0609C40.965 15.991 41.5781 16.0347 42.2543 16.1919C42.9305 16.3491 43.571 16.6081 44.1758 16.9688C44.8014 17.3026 45.3286 17.7217 45.7572 18.2263C46.2098 18.7279 46.4755 19.2896 46.5545 19.9115C46.6152 20.3899 46.5312 21.0689 46.3026 21.9486C46.0949 22.8013 45.7931 23.6782 45.397 24.5791C44.998 25.4561 44.5254 26.2331 43.9795 26.91C43.4574 27.5839 42.9093 27.9573 42.3353 28.0302C41.8569 28.0909 41.4007 28.0394 40.9668 27.8758C40.5567 27.7091 40.2019 27.4989 39.9024 27.2453C39.8731 27.5893 39.8889 28.0004 39.9496 28.4788C40.0103 28.9572 40.1115 29.4669 40.2531 30.0079C40.4156 30.522 40.6109 31.0076 40.839 31.4648C41.0881 31.8949 41.3774 32.2592 41.7069 32.5577C42.0604 32.8531 42.4539 32.9854 42.8875 32.9547C43.4615 32.8818 44.0261 32.5428 44.5812 31.9376C45.1333 31.3085 45.6508 30.5987 46.1338 29.8083C46.6137 28.9939 47.0323 28.1752 47.3896 27.3521C47.7469 26.529 48.0163 25.875 48.1978 25.3902ZM41.6346 18.2028C41.515 18.218 41.3688 18.4067 41.1961 18.7689C41.0472 19.128 40.8792 19.6233 40.692 20.2547C40.5257 20.8591 40.3595 21.5607 40.1936 22.3595C40.0516 23.1553 39.9515 23.9944 39.8934 24.8767C40.0403 25.0768 40.1961 25.2515 40.3609 25.4007C40.5496 25.5469 40.7411 25.6198 40.9355 25.6194C41.1508 25.5921 41.3807 25.3928 41.6252 25.0215C41.8667 24.6262 42.096 24.1353 42.3132 23.5488C42.5274 22.9383 42.6966 22.2606 42.8207 21.5157C42.9449 20.7708 42.9973 20.035 42.978 19.3083C42.7441 18.9977 42.5044 18.7365 42.2588 18.5246C42.034 18.2858 41.826 18.1785 41.6346 18.2028Z" fill="#CAD3D0"/>
</svg>
