<svg width="216" height="37" viewBox="0 0 216 37" fill="none" xmlns="http://www.w3.org/2000/svg">
<path d="M11.15 0.649999L11.6 0.549997L13.15 1.55L15.1 3.2L16.3 4.1L17.5 4.9L18.5 5.7L19.6 6.7L20.05 7.1L20.1 7.55L20.05 7.65L19.3 6.95L17.45 5.65L15.6 4.05L13.55 2.5L12.4 1.7L11.15 0.649999ZM19.55 4.3L19.85 5.15L17.1 2.9L16.3 2.3L15.55 1.55L14.6 0.799997H15.25L16.55 1.9L17.6 2.6L18.4 3.4L19.55 4.3ZM20 9.55L20.05 9.85L19.9 9.95L18.85 9.25L17.85 8.5L16.8 7.5L15.8 6.75L14.7 5.95L10.85 2.7L9.85 1.9L8.95 1.05L9 0.999998H9.35L10.65 1.85L11.55 2.6L12.4 3.4L13.3 4.1L15.1 5.6L16.05 6.25L17.4 7.45L18.4 8.3L19.45 9.05L20 9.55ZM19.75 11.7L19.65 11.85L19.3 12L18.25 11.1L16.25 9.6L15.4 8.85L14.1 7.8L13.25 6.8L12.4 6.25L11.9 6.1L10.95 5.2L9.05 3.8L7.5 2.6L6.95 2L7.3 1.85L8.15 2.6L10.05 3.9L11.15 4.75L12.25 5.8L13.6 6.65L14.6 7.75L15.7 8.5L17.65 9.95L18.45 10.65L19.5 11.55L19.75 11.7ZM10.65 6.8L10.6 7.05L10.4 7.3L9.5 6.5L7.4 4.95L5.9 3.7L5.65 3.15L5.8 3L6.7 3.75L9.5 5.9L10.65 6.8ZM10.05 9.1L8.95 8.5L7.8 7.6L6.8 6.8L5.15 5.5L4.5 4.9L4.7 4.65L5.65 5.25L6.55 6L7.4 6.75L8.5 7.5L9.25 8.15L10 8.7L10.05 9.1ZM11.1 12.7L10.3 12.15L8.6 10.6L7.35 9.85L4.95 7.75L3.9 6.7L4.1 6.4L5.1 7.35L6.2 8.15L7.9 9.55L8.95 10.25L9.95 11.1L10.95 12.2L11.1 12.7ZM16.2 19.05L15.45 18.45L14.55 17.8L13.35 17L12.4 16.15L10.8 14.8L9.2 13.6L8.1 12.75L6.45 11.35L4.8 10.1L3.75 9.25L3.4 8.9V8.4H3.5L4.25 9.1L5.7 10.2L7.7 11.75L10 13.65L12.1 15.3L12.8 15.95L13.95 16.9L15.25 17.8L16.1 18.85L16.2 19.05ZM17.35 12.1L16.8 12.2L14.15 10.2L13.85 9.8L13.9 9.55L14.65 9.95L16.35 11.25L17.35 12.1ZM17.75 22.75L15.05 20.8L12.25 18.5L10.95 17.4L10.15 16.85L9.4 16.2L8.15 15.25L6.45 13.75L3.75 11.6L3.35 11.35L3.4 10.85L3.95 11.25L5.7 12.5L7.65 14.25L8.8 15.15L9.65 15.85L10.4 16.5L11.3 17L12.65 18.15L15.1 20.2L16.2 21.05L17.6 22.2L17.75 22.75ZM4.1 14L4.4 13.9L4.95 14.45L6.1 15.45L7.1 16.15L8.7 17.45L10.05 18.6L12 20.1L14.1 21.85L15.2 22.65L16.95 24L17.9 24.85L18.4 25.4L18.25 25.75L17.75 25.4L15 23.1L14.1 22.45L10.2 19.35L8.4 17.95L7.55 17.15L6.5 16.45L5.5 15.4L4.45 14.55L4.1 14ZM8.8 20.05L9.4 20.45L10.7 21.55L11.55 22.15L13.3 23.55L14.15 24.3L15 24.95L16.1 25.9L16.9 26.5L17.7 27.2L18.25 27.85L18.15 28.2L17.45 27.6L16.65 26.8L15.45 26L12.85 23.8L11.9 23.1L10.2 21.8L9.2 20.65L8.8 20.05ZM5.85 23.3H6.55L7.1 23.7L7.15 24.25L6.85 24.05L5.85 23.3ZM3 23.35H3.65L6.05 25.15L7.1 26.25V26.4L5.1 24.95L3 23.35ZM7.4 28.85L7 28.8L6.25 28.25L5.4 27.55L4.1 26.45L1.25 24.2L0.8 23.85L1.1 23.6L1.75 24.05L3.1 25.05L3.9 25.7L4.95 26.45L5.95 27.45L7.1 28.3L7.4 28.85ZM11.1 24.8L11.05 24.35H11.15L12.2 25.15L13.2 25.9L14.85 27.2L15.8 28.05L17.15 29L18.1 30.1L17.95 30.3L17.15 29.7L16.4 29L15.15 28.25L13.05 26.35L11.7 25.3L11.1 24.8ZM0.45 26.05V25.8L0.65 25.7L1.75 26.5L2.7 27.25L3.6 27.9L6.25 30.1L8.5 31.85L10.45 33.5L11.5 34.25L13.45 35.8L13.1 36L11.9 35.25L9.4 33.3L7.95 32L6.05 30.6L4.1 28.9L3.05 28.15L1.35 26.8L0.45 26.05ZM11.35 27.05L12.2 27.55L13.1 28.25L14.05 29L14.9 29.7L15.85 30.4L17.1 31.5L17.45 32.15L17.35 32.4L16.25 31.35L13.05 28.85L11.65 27.8L11.35 27.45V27.05ZM11.25 36.5H10.75L10.25 36.2L9.4 35.7L8.35 34.75L7.25 33.95L6.1 33.15L5.35 32.45L4.25 31.45L3.4 30.8L2.15 29.9L1.3 29.1L0.5 28.25L0.55 27.9L1.45 28.7L3 29.95L5.75 32.2L6.4 32.65L7.5 33.6L9 34.7L9.65 35.25L11.25 36.5ZM10.95 29.05L11.1 29L12.1 29.85L13.2 30.65L15.35 32.4L16.55 33.65L16.35 33.8L15.3 33.05L14.5 32.4L12.7 30.9L11.85 30.15L10.85 29.4L10.95 29.05ZM9.2 30.6L9.25 30.3L9.7 30.35L10.75 31.25L12.7 32.9L13.95 33.85L15.2 34.9L14.9 35.1L13.6 34.2L12.55 33.3L11.6 32.55L9.2 30.6ZM7.2 35.7L7.35 36.45L6 35.2L3.5 33.4L2.2 32.35L1.55 31.7L0.95 31.2L1.75 31.35L2.6 32.05L3.6 32.8L4.5 33.5L5.4 34.25L6.35 35L7.2 35.7ZM3.55 35.35L3.1 35L2.1 33.7L4.65 35.85L3.55 35.35ZM38.4348 0.999998H39.2348L43.0348 4.1L42.7348 4.35L42.2348 3.95L40.8348 2.85L38.4348 0.999998ZM41.5848 1.2L41.9848 0.999998L43.1348 1.7L43.8348 2.4L43.7348 2.7L41.5848 1.2ZM23.7848 1.4L24.0348 1.05L25.0848 1.95L25.6848 2.5L26.8848 3.25L29.5848 5.55L30.4848 6.3V6.8L28.6848 5.45L27.6348 4.45L26.4848 3.45L25.1848 2.6L23.7848 1.4ZM27.0848 1.55L26.6348 1.05L27.1348 1.1L29.3848 2.85L30.1348 3.6V3.95L28.8848 3.05L27.0848 1.55ZM36.6848 1.6L36.9348 1.5L37.6848 2.15L38.4848 2.75L39.2848 3.55L40.8348 4.65L41.6348 5.4L42.1348 5.9L41.9848 6.25L41.0848 5.45L40.0348 4.8L38.9848 4.05L37.8348 2.9L36.6848 1.95V1.6ZM30.8848 9.2L31.0348 9.55L30.9848 9.6L30.1848 9.1L28.5848 7.7L26.5848 6.05L24.4348 4.35L23.2348 3.25V2.85L24.1848 3.65L26.0848 5.05L27.8348 6.45L29.6848 8.05L30.8848 9.2ZM35.8348 3.25L35.9348 3.2L36.8848 4L37.6848 4.8L38.6348 5.45L39.5348 6.1L40.8348 7.15L41.1848 7.7L41.0348 8L39.9848 7.15L39.0348 6.35L38.0348 5.6L36.4348 4.25L35.8348 3.55V3.25ZM35.1348 5L40.0348 8.9L40.2848 9.25L40.1348 9.65L39.2348 9L38.3848 8.25L36.7348 6.95L35.8848 6.25L35.0848 5.3L35.1348 5ZM31.2848 11.65L31.3848 12.05L31.2348 12.15L26.9848 8.8L25.4348 7.45L23.5348 6L23.4848 5.6L23.5848 5.55L24.3348 6L25.7848 7.25L27.5348 8.6L29.2348 10.05L30.1848 10.75L31.2848 11.65ZM39.4348 10.9L39.4848 11.1L39.2848 11.35L37.3348 9.95L35.9348 8.75L35.0848 8.05L34.1348 7.25L34.3348 7L35.3848 7.7L36.2848 8.4L37.1348 9.1L38.2348 10.05L38.9348 10.55L39.4348 10.9ZM23.9848 8.4L24.6348 8.75L25.4848 9.35L26.5848 10.45L29.7348 12.9L31.2848 14.2L33.6348 15.9L35.1848 17.35L35.8848 18.1L35.6348 18.25L34.5848 17.35L32.5348 15.7L30.4848 14.2L28.5348 12.6L26.4348 10.9L24.7848 9.35L23.9848 8.75V8.4ZM33.4848 8.7L33.5848 8.8L34.6348 9.45L36.6848 11.1L38.6848 12.85L38.3848 13.05L37.2348 12.3L36.2848 11.45L34.5848 10L33.6348 9.4L33.3848 9L33.4848 8.7ZM32.5848 10.45H32.6848L33.8348 11.4L34.9848 12.3L36.0348 12.95L37.3348 14.15L37.7348 14.5L37.6348 14.65L37.5348 14.95L36.5348 14L35.5848 13.2L34.4848 12.45L33.0848 11.3L32.5348 10.7L32.5848 10.45ZM24.5348 11.7L25.3848 11.75L26.7348 12.9L28.0348 13.85L28.9848 14.85L29.9348 15.4L30.9348 16.3L32.4348 17.45L33.5348 18.25L34.8848 19.6L34.5848 19.9L33.9848 19.35L32.3848 18.05L29.6348 15.85L28.7348 15.2L27.5348 14.05L26.3848 13.25L25.6348 12.55L24.5348 11.7ZM36.6848 16.1L36.6348 16.4L36.5348 16.55L35.6348 15.75L34.3848 14.8L33.2348 13.9L32.1348 13L31.6848 12.4L31.8848 12.15L32.6848 12.9L33.7848 13.85L34.9848 14.55L36.1348 15.65L36.6848 16.1ZM24.8848 14L25.6848 14.5L26.9348 15.5L27.8848 16.25L29.0348 17.1L30.8848 18.55L32.8848 20.2L33.9348 21.4L33.7848 21.5L33.1348 21.15L32.3348 20.45L30.2848 18.7L29.1848 17.8L28.3348 17.25L27.6348 16.6L26.3348 15.55L24.9348 14.3L24.8848 14ZM33.0348 22.9L33.1348 23.3L32.8348 23.35L31.7848 22.45L30.7848 21.65L29.8348 20.85L26.7348 18.4L25.4348 17.3L25.3848 16.85L25.4348 16.75L26.2348 17.5L29.6348 20.05L31.1848 21.4L32.1348 22.1L33.0348 22.9ZM32.6348 25.05L31.6848 24.8L30.0348 23.5L29.2848 23L28.2848 22L25.8848 20.05L25.7848 19.6L25.8348 19.4L26.7348 20.25L28.5348 21.7L29.5348 22.55L30.4348 23.2L31.2348 23.95L32.0348 24.35L32.6348 25.05ZM32.3348 27V27.15L32.2348 27.5L30.8348 26.6L29.2348 25.2L27.6848 24.1L26.8848 23.45L26.0348 22.55L26.0848 22.25L29.9848 25.2L31.1348 26.25L32.3348 27ZM31.7348 29.25V29.55L31.5348 29.6L30.4848 28.8L27.5848 26.4L26.9848 25.85L26.1348 25.2L25.6348 24.45L25.6848 24.25L27.2848 25.5L27.9848 26.1L29.1848 27L30.0348 27.75L31.2348 28.75L31.7348 29.25ZM31.4348 31.35L31.3848 31.5L31.2848 31.75L31.1848 31.7L30.2848 30.9L28.3348 29.4L27.2848 28.4L26.1848 27.65L25.1848 26.65L25.2848 26.3L25.7848 26.8L26.7348 27.45L27.7848 28.4L29.3848 29.55L30.8348 30.8L31.4348 31.35ZM30.8848 33.25V33.5L30.6348 33.6L28.7348 32.2L26.7848 30.55L25.1348 29.25L24.6348 28.8L24.8848 28.55L25.8348 29.1L27.4848 30.6L28.3848 31.25L29.3848 32L30.6348 32.95L30.8848 33.25ZM30.4348 35.35L30.4848 35.55L30.3848 35.75L29.1348 34.9L26.9848 33.2L25.5848 31.95L24.7848 31.5L24.3348 30.85L24.4848 30.55L25.1848 31.2L27.1348 32.6L29.0848 34.15L30.2348 35.05L30.4348 35.35ZM27.6848 36L27.4348 35.85L25.9848 34.8L24.3848 33.5L23.9348 32.95L24.1348 32.75L27.1348 35.15L28.0348 35.85V35.95H27.8348L27.6848 36ZM25.0348 35.85H24.3348L23.5848 34.85L23.6348 34.6L25.0348 35.85ZM64.2238 12.6L64.0238 12.65L63.2238 12.15L61.7738 10.95L59.5238 9.2L57.3738 7.4L56.0238 6.4L54.9238 5.45L53.9738 4.65L51.7738 3L50.1238 1.65L49.7238 1.15L50.0738 1.1L50.9738 1.85L52.3238 2.75L53.9738 4.05L55.4738 5.3L56.6238 6.3L58.0738 7.35L59.8738 8.85L61.6238 10.15L63.6738 11.95L64.1738 12.3L64.2238 12.6ZM63.7738 7.15L62.8238 7L60.9738 5.5L60.1738 4.9L58.7238 3.7L56.8738 2.2L55.6738 1.1L56.1238 1.15L57.6738 2.2L58.5238 2.9L59.4238 3.7L61.5238 5.25L63.7738 7.15ZM52.7238 1.35L52.9238 1.15L54.4738 2L55.9238 3.4L57.4238 4.3L58.2738 5.1L59.1738 5.8L60.0738 6.65L61.3238 7.65L62.0238 8.15L62.8738 8.8L63.6238 9.3L64.1738 10L64.0238 10.35L60.2738 7.5L58.4738 5.85L57.4238 5L56.4738 4.3L55.3238 3.4L54.2238 2.4L52.7238 1.35ZM54.9238 7.45L54.8738 7.6L54.3738 7.5L53.2238 6.65L52.3738 5.9L51.5238 5.2L48.9738 3.25L47.8238 2.25L47.5238 1.7L47.5738 1.45L52.9238 5.7L53.8238 6.5L54.9238 7.45ZM61.6738 3.2L62.5238 4.45L58.6738 1.55L59.4738 1.75L60.3738 2.25L61.6738 3.2ZM52.9738 8.1V8.35L52.8238 8.55L51.9238 7.95L49.1238 5.7L48.2738 5.05L47.2238 4.3L46.8738 3.95L47.0238 3.6L48.2238 4.4L49.3238 5.2L50.3238 6L51.4738 7.15L52.2738 7.55L52.9238 8.05L52.9738 8.1ZM46.5738 6.05L46.5238 5.85L46.7738 5.65L47.8738 6.55L49.8238 8.2L51.6238 9.55L52.4238 10.4L52.3238 10.75L51.3238 10L50.4238 9.3L49.4738 8.6L48.5238 7.8L47.6238 6.9L46.5738 6.05ZM52.1238 12.35L52.2238 12.65L52.0238 12.75L50.8238 11.9L49.7238 11.1L47.1238 8.95L46.0738 8.2L46.1238 7.7L47.2738 8.45L48.9238 9.85L50.9238 11.35L52.1238 12.35ZM56.9238 9.25L57.4238 9.4L58.1738 9.9L59.6738 11.2L61.3238 12.4L62.6238 13.55L63.5238 14.2L64.0738 14.9L64.0238 15.2L63.4238 14.75L60.7738 12.65L59.3238 11.4L58.4738 10.85L57.7738 10.2L57.1738 9.75L56.9238 9.25ZM51.7738 14.65L51.8238 14.9L51.5738 15L50.5738 14.2L48.7238 12.65L46.8238 11.25L45.9238 10.1V9.85L46.3238 10.15L47.4738 11.1L50.6238 13.65L51.7738 14.65ZM64.0238 17.15V17.25L63.8738 17.35L62.9238 16.75L61.2238 15.5L60.2738 14.7L58.5738 13.2L57.3738 12.2V11.75L58.3238 12.45L59.1738 13.15L60.0738 13.85L61.8738 15.4L63.3238 16.35L63.9238 16.95L64.0238 17.15ZM45.5238 12H45.7738L46.8238 12.9L47.7738 13.65L48.6738 14.4L49.6238 15.15L50.9738 16.3L51.4238 17.05L51.3738 17.3L50.3238 16.45L49.4738 15.7L48.5238 15L47.5238 14.2L46.6738 13.4L45.5238 12.45V12ZM45.1238 14.75L45.2238 14.1L47.2238 15.85L48.4238 16.65L49.7238 17.7L50.3738 18.35L51.0738 18.95L50.9738 19.25L50.2738 18.8L48.5238 17.4L46.9238 16.1L46.0238 15.4L45.1238 14.75ZM57.3238 14.6V14.3L57.4738 14.2L58.8238 15.35L60.0738 16.45L61.3238 17.25L62.8738 18.7L63.5238 19.45L63.4738 19.65L62.6738 19.1L61.0238 17.6L59.2238 16.35L57.3238 14.6ZM44.7238 16.85L44.6738 16.7L44.7238 16.45L44.8738 16.35L45.5738 16.95L46.6238 17.7L50.3238 20.7L50.7238 21.2L50.5738 21.5L50.2238 21.2L48.9238 20.25L47.8738 19.35L47.1238 18.6L46.2238 18.05L45.4238 17.4L44.7238 16.85ZM57.0238 16.8L57.0738 16.45L57.1738 16.35L58.1238 17.1L59.0238 17.85L60.2238 18.95L60.9738 19.55L62.3238 20.5L63.2738 21.65L63.0738 21.85L62.6738 21.45L61.6238 20.5L60.6738 19.9L59.3738 18.9L57.7238 17.4L57.0238 16.8ZM50.3238 23.45L49.4738 22.95L48.6738 22.3L47.8238 21.5L46.6738 20.85L45.0738 19.45L44.1738 18.6L44.2738 18.2L45.2738 19L46.2238 19.8L47.0738 20.6L48.2238 21.35L49.8738 22.6L50.3738 23.1L50.3238 23.45ZM56.6238 18.5L56.7238 18.55L57.9238 19.5L60.0738 21.1L60.9238 21.75L61.8238 22.5L62.7738 23.5L62.6238 23.8L61.7738 23.05L58.8238 20.7L57.7738 19.95L56.5738 18.9L56.6238 18.5ZM49.9738 25.35V25.6L49.7738 25.65L48.6738 24.85L46.7738 23.25L45.7738 22.55L44.3738 21.35L43.8238 20.75L43.9738 20.45L45.0238 21.35L46.1238 22.25L47.3238 23.05L49.2738 24.6L49.9738 25.35ZM56.3238 20.8L56.7238 20.95L60.0238 23.55L61.4738 24.8L62.3238 25.5L62.0238 25.7L60.8738 24.95L58.8738 23.2L57.3238 22.05L56.6738 21.5L56.2238 21.1L56.3238 20.8ZM49.7238 27.55L49.5738 27.75L49.4238 27.85L47.3238 26.25L46.3738 25.45L45.4238 24.6L44.4738 23.8L43.4238 22.8L43.5738 22.45L43.9738 22.75L45.1238 23.8L46.9238 25.2L49.0238 26.95L49.5738 27.35L49.7238 27.55ZM55.8238 22.7H55.9238L57.1738 23.75L58.4738 24.75L59.3238 25.35L60.2238 26.25L61.1738 26.8L61.6738 27.45L61.4738 27.7L60.6738 27L59.5738 26.25L58.9738 25.7L57.6238 24.7L56.7238 23.9L55.7738 23L55.8238 22.7ZM60.9738 29.35L60.8738 29.55L60.7738 29.7L60.4738 29.45L59.8238 28.85L58.9738 28.3L57.7238 27.3L56.0738 25.9L55.2738 24.85L55.3738 24.6L56.3238 25.6L60.5238 28.8L60.9738 29.35ZM43.2238 24.95L44.1238 25.4L45.4238 26.4L46.2238 27.15L47.2238 28L51.1738 31.15L52.2238 31.9L54.2238 33.45L54.9738 34.15L55.8238 35L55.5238 35.15L54.2238 34.15L52.2738 32.5L50.4738 31.15L47.5238 28.9L46.6238 28.1L45.8238 27.55L45.1738 26.8L43.7738 25.8L43.1738 25.25L43.2238 24.95ZM54.5738 26.55L55.5738 27.4L57.2238 28.6L58.9738 30L60.0238 31.15L59.8238 31.4L59.4238 30.95L56.1738 28.5L55.3238 27.8L54.5238 26.8L54.5738 26.55ZM53.7738 35.6L53.4238 35.75L51.9738 34.85L51.0238 34L49.1738 32.45L48.1738 31.75L47.2238 30.95L46.0738 30.05L45.1238 29.4L43.8738 28.2L43.0238 27.6L42.6738 27.3L42.8738 26.85L43.7238 27.6L44.6238 28.2L45.5738 29.2L47.6738 30.65L48.6238 31.35L50.0738 32.7L51.5738 33.9L53.7738 35.6ZM53.3738 28.3L53.5738 28.2L54.8238 29.1L56.9238 30.9L58.5738 32.15L58.9238 32.8L58.7738 33L57.6238 32.15L56.6738 31.3L54.9738 29.9L53.8738 28.9L53.1738 28.5L53.3738 28.3ZM50.4238 35.45L50.5738 36.05L49.3238 35L47.5738 33.75L46.6738 33L45.8738 32.25L43.0738 30L42.2738 29.2L42.4238 28.95L43.4738 29.7L45.3738 31.35L46.3738 32.2L47.4738 33.05L50.4238 35.45ZM51.4238 29.4L51.5738 29.25H51.9238L53.1238 30.1L54.2238 31.2L55.1738 31.95L56.7238 33.25L57.6238 33.95L57.5238 34.15L56.1238 33.3L54.9738 32.25L53.7738 31.25L52.6738 30.4L51.4238 29.4ZM47.9238 35.65L47.4238 35.9L45.6238 34.5L44.6238 33.7L43.4238 32.95L42.7238 32.25L41.9738 31.25L42.1238 31.05L42.8738 31.75L43.8238 32.55L45.0238 33.35L45.9738 34.1L47.1238 35.2L47.9238 35.65ZM44.7238 35.6L44.5738 35.75L44.0738 35.7L42.8238 34.75L41.5738 33.6L41.7238 33.35L43.5238 34.75L44.7238 35.6ZM41.3238 35.45V34.9L42.2238 35.85L41.7738 35.8L41.3238 35.45ZM87.8938 0.999998L88.2938 0.85L89.6938 1.85L91.2438 3.15L92.2438 4.05L92.1438 4.4L91.3937 3.75L89.7438 2.5L87.8938 0.999998ZM73.2438 1.4L73.3438 0.949998L74.3438 1.8L75.4938 2.7L78.3938 5L79.0938 5.7L79.9438 6.45L79.8938 6.75L78.9938 6.2L77.4438 4.8L75.9938 3.65L74.9438 2.8L74.0938 2.2L73.2438 1.4ZM90.9938 0.999998L91.5438 0.949998L92.3938 1.8L92.3438 2.25L90.9938 0.999998ZM75.6938 1.15L76.1438 0.999998L77.5938 2.05L78.7938 2.9L79.3438 3.35L79.4438 4.05L77.4938 2.45L75.6938 1.15ZM91.7438 6L91.8438 6.1L91.7438 6.4L90.3938 5.6L89.5437 4.8L87.6938 3.3L85.7438 1.65L85.9438 1.45L86.5438 1.7L90.0438 4.65L90.7938 5.3L91.7438 6ZM80.5938 9.8L80.2438 9.6L77.9938 7.7L75.8938 6.1L74.7438 5L73.4438 4.1L71.9438 2.85L71.4938 2.3L71.5938 2L72.7438 2.95L73.9938 3.95L75.2438 4.8L76.2438 5.6L79.6438 8.5L80.5438 9.5L80.5938 9.8ZM91.2938 8.05V8.55L90.6438 8.1L89.3938 7.05L88.4938 6.4L86.5938 4.85L85.2938 3.7L85.3938 3.35L86.3938 4.05L87.3438 4.8L88.1938 5.6L90.0938 7L91.0438 7.9L91.2938 8.05ZM80.9938 12.45L80.7438 12.3L79.3438 11.2L78.0938 10.35L76.9438 9.3L75.6438 8.35L74.5938 7.45L73.6438 6.65L72.2938 5.65L71.6438 5L71.0438 4.45L71.1937 4.05L71.8438 4.65L72.6938 5.35L73.9938 6.35L74.8938 7.1L76.1438 8.1L78.9938 10.35L80.4438 11.35L80.9438 12.2L80.9938 12.45ZM90.9438 10.15L90.9938 10.5L90.7938 10.55L89.7438 9.7L86.9438 7.65L85.4938 6.55L84.8938 5.75L84.9938 5.45L85.2938 5.8L86.2938 6.5L87.6438 7.55L89.2938 8.9L90.5438 9.85L90.9438 10.15ZM81.3938 15.35L81.1438 15.15L79.9938 14.25L78.0938 12.65L76.1938 11.15L74.2938 9.6L72.1438 8L71.4438 7.35L70.6938 6.4L70.8438 6.2L71.6438 6.85L72.4438 7.55L73.5438 8.45L77.7938 11.8L79.5938 13.2L80.8438 14.25L81.3438 14.95L81.3938 15.35ZM90.5938 12.65L89.4438 12.1L88.4438 11.25L86.5438 9.7L85.0938 8.65L84.4438 7.95L84.5938 7.7L86.0938 8.7L87.0938 9.4L87.6938 10.05L88.4438 10.7L89.4938 11.45L90.2938 12.05L90.5938 12.35V12.65ZM81.6938 17.85L80.9438 17.3L80.0938 16.75L78.1938 15.1L74.9938 12.6L73.0438 10.95L71.9438 10.05L71.0438 9.5L70.3438 8.6L70.3938 8.3L70.7938 8.7L71.3438 9.15L72.4938 9.95L73.3438 10.6L75.0938 12L76.0438 12.8L77.3438 13.85L78.4438 14.75L80.2938 16.3L81.5938 17.3L81.6938 17.85ZM90.1438 14.5L90.1938 14.85L89.9938 14.95L88.8938 14.05L87.9438 13.25L86.0938 11.85L84.7438 10.7L84.2438 10.05L84.3438 9.75L85.3438 10.65L87.0438 12L88.9938 13.5L90.1438 14.5ZM75.3438 14.9L75.2438 15.05L75.1938 15.2L74.5938 14.7L73.7938 14.1L72.7438 13.35L71.3938 12.2L70.3438 11.4L69.8938 10.7L69.9938 10.5L70.2938 10.65L70.9438 11.15L72.0438 12.15L73.2438 13.1L74.1938 13.75L74.8938 14.4L75.3438 14.9ZM83.9938 12.05L84.9438 12.75L85.8438 13.4L87.4938 14.7L88.9438 16L89.7938 16.8L89.6438 17L88.6438 16.35L87.9438 15.65L86.1938 14.35L84.6438 13.1L83.8438 12.25L83.9938 12.05ZM75.1438 16.95V17.5L74.2938 17L72.9438 15.95L70.4938 13.9L69.4938 12.85L69.5938 12.6L69.8938 12.8L72.3938 14.75L73.8438 15.9L74.6438 16.6L75.1438 16.95ZM89.2938 18.8L89.3938 19.15L89.2438 19.25L88.2438 18.4L87.2938 17.55L85.4938 16.1L84.0438 15.05L83.5438 14.35L83.5938 14.1L83.9438 14.35L85.0938 15.2L87.0438 16.8L88.1438 17.75L89.2938 18.8ZM69.1438 15.1V14.75L69.3438 14.7L70.4938 15.75L71.6438 16.7L73.8438 18.25L74.9938 19.4L74.9438 19.65L72.3438 17.65L71.1438 16.9L70.2438 16L69.1438 15.1ZM82.0438 20.25L81.6938 20.4L80.2938 19.2L78.9438 18.3L77.9938 17.35L76.8438 16.5L75.6938 15.35L75.6438 14.95L76.3938 15.6L77.2938 16.3L78.2938 17L79.6438 18.2L80.5438 18.8L81.3438 19.5L82.0438 20.25ZM89.0438 20.95L89.0937 21.35L88.8938 21.4L88.0938 20.65L86.3938 19.4L85.5438 18.75L84.5938 18L83.5938 16.95L83.2938 16.45L83.3438 16.2L84.0438 16.75L85.5938 18.2L87.3438 19.5L88.4438 20.4L89.0438 20.95ZM74.6438 21.55L74.6938 21.85L74.4938 21.9L73.2438 21L72.1938 20.1L70.3438 18.65L69.1438 17.6L68.7938 17.05L68.9438 16.8L69.1438 16.9L70.2438 18L71.5438 19L72.6938 19.95L73.5938 20.75L74.6438 21.55ZM76.1438 18.1L77.3438 18.65L79.6438 20.65L81.1938 21.9L81.9438 22.4L82.4438 22.9V23.35L81.2938 22.55L78.0938 20L76.6937 18.8L76.1938 18.45L76.1438 18.1ZM88.6938 22.9L88.6438 23.25H88.4938L87.9938 23L87.1938 22.35L86.2938 21.7L85.4938 21.2L84.7438 20.4L83.7938 19.8L83.1438 18.95L83.1938 18.6L83.5438 18.85L84.1938 19.5L85.1938 20.05L85.8438 20.75L86.5938 21.4L87.5938 22.15L88.3438 22.6L88.6938 22.9ZM68.3938 19L68.4938 18.95L69.6438 19.95L71.5938 21.55L73.4438 22.85L74.3438 23.8L74.2438 24.05L73.2938 23.3L71.0438 21.7L69.6438 20.55L68.8438 19.95L68.3438 19.25L68.3938 19ZM76.4938 20.9L77.0938 20.95L78.5938 22.25L79.3938 22.8L81.0438 24.15L81.8438 24.85L83.7938 26.45L86.1438 28.2L87.3938 29.4L87.2938 29.65L86.2438 28.95L85.3438 28.15L84.3938 27.5L82.4938 25.95L80.6438 24.3L78.6438 22.8L77.6938 22L76.4938 20.9ZM88.2438 25.1L88.1938 25.5L86.9938 24.75L86.0438 24L85.2438 23.25L83.9938 22.25L83.4438 21.9L82.9938 21.35V20.9H83.0438L83.6938 21.5L84.9438 22.25L86.2438 23.5L87.1938 24.3L88.2438 25.1ZM74.0438 25.95L74.1438 26.3L73.9438 26.4L73.0438 25.65L71.0938 24L69.8938 23.1L68.3938 22L68.0438 21.4L68.1438 21.1L69.2938 22.05L71.5438 23.8L72.5438 24.7L73.6938 25.65L74.0438 25.95ZM73.7438 28.05V28.2L73.6438 28.55L72.7938 27.95L71.5438 26.85L70.6938 26.25L68.8438 24.6L67.5938 23.65L67.6438 23.15L67.9438 23.35L68.9438 24.2L70.8438 25.65L72.5438 27L73.3938 27.85L73.7438 28.05ZM76.8438 23.55L76.8938 23.2L77.2438 23.5L77.7938 24.05L78.9938 24.95L82.9438 28.1L83.9938 28.9L86.0438 30.5L87.0438 31.5L86.8438 31.7L85.7438 30.95L84.7938 30.2L83.7938 29.4L82.8438 28.65L81.9438 27.9L79.2938 25.8L77.3438 24.2L76.8438 23.55ZM82.7938 23.6L83.1438 23.4L84.2438 24.4L85.8438 25.55L86.8938 26.4L87.5438 26.8L87.7438 27.1L87.6438 27.5L87.3438 27.25L86.0938 26.4L85.0938 25.55L83.5938 24.4L82.7938 23.6ZM67.1437 25.7L67.7938 25.75L68.7938 26.35L70.1438 27.55L72.2938 29.3L73.2938 30.4L73.2438 30.6L72.2938 29.8L70.7938 28.7L69.4438 27.6L68.0938 26.45L67.1437 25.7ZM77.2438 26.3L77.4938 26.15L78.9938 27.4L81.1938 29.1L82.1938 29.9L83.1938 30.75L84.2438 31.55L85.8938 32.9L86.4938 33.75L86.4438 34L85.9438 33.65L84.6438 32.55L82.8438 31.15L80.6438 29.35L78.4438 27.6L77.2438 26.3ZM72.9938 32.25L72.9438 32.5L72.8438 32.75L72.4938 32.45L69.6438 30.15L68.5438 29.2L67.4938 28.55L66.7938 27.8L66.9938 27.4L67.9438 28.3L69.1938 29.15L72.3938 31.75L72.9938 32.25ZM77.6938 29.4L78.1438 29.15L79.3938 30.1L80.3938 30.8L81.0438 31.5L81.8438 32.1L82.9938 33.05L84.8438 34.55L85.8938 35.3L85.7438 35.5L84.9938 35.25L83.5438 34.05L82.5938 33.25L80.7438 31.8L78.9938 30.35L77.6938 29.4ZM72.6438 34.45L72.6938 34.7L72.5438 34.9L72.3438 34.8L71.1438 33.9L70.1438 33.1L69.2438 32.35L68.2438 31.45L66.8938 30.45L66.5438 29.9L66.5938 29.65L67.5438 30.25L70.5438 32.85L71.6438 33.65L72.6438 34.45ZM78.0938 32.05L78.0438 31.3L80.2438 33.2L81.2438 34L83.4438 35.8L82.5438 35.75L81.1938 34.6L80.2938 33.85L78.0938 32.05ZM70.5438 35.15L70.8938 35.95L69.1938 34.75L66.9438 32.95L66.0438 31.85L66.1438 31.6L66.3438 31.8L67.4438 32.75L68.4938 33.55L70.5438 35.15ZM68.3438 35.75L67.6938 35.9L66.3938 34.85L65.6438 34.15L65.7438 33.8L66.5438 34.35L67.6938 35.3L68.3438 35.75ZM104.097 1.1L104.397 0.999998L105.997 2.2L107.797 3.6L108.647 4.35L109.447 5L110.947 6.15L111.797 7.05L111.747 7.25L110.447 6.4L109.147 5.2L107.797 4.35L106.397 3.05L104.097 1.1ZM107.047 1.1L107.497 0.999998L108.747 2.05L109.597 2.75L110.547 3.35L111.247 4.15L112.197 4.95L112.047 5.25L111.097 4.55L109.547 3.2L107.047 1.1ZM110.097 1.1L110.697 1.05L111.797 2L112.497 2.85L112.447 3.1L111.747 2.5L110.597 1.6L110.097 1.1ZM101.147 1.25L101.497 1.1L102.597 1.8L109.047 7.1L109.697 7.55H108.997L107.597 6.45L106.647 5.65L105.147 4.55L103.547 3.15L101.147 1.25ZM106.297 7.7L106.047 7.65L104.747 6.75L103.597 5.8L101.597 4.1L99.3469 2.45L98.7469 1.95L98.4469 1.55L98.5969 1.25L98.9969 1.5L100.197 2.45L102.997 4.75L105.047 6.3L106.247 7.3L106.647 7.6L106.547 7.7H106.297ZM98.0969 3.75L98.2469 3.35L99.6469 4.3L100.597 5.25L101.647 6.1L103.297 7.4L103.897 8.15L103.797 8.4L102.897 7.65L101.897 6.95L98.0969 3.75ZM103.697 10.1L103.647 10.2V10.45L103.447 10.55L102.747 9.95L99.5469 7.35L97.8469 6.05V5.6L97.9969 5.5L99.2469 6.5L102.797 9.4L103.697 10.1ZM103.347 12.2L103.197 12.55L101.947 11.8L101.047 11.05L99.9969 10.25L99.2969 9.65L98.4469 8.85L97.7469 8.3L97.3469 7.8L97.4969 7.6L98.0969 7.9L99.5969 9.2L100.497 10L102.097 11.2L103.347 12.1V12.2ZM107.997 18.6L107.947 18.65V18.8L107.847 18.85L107.497 18.6L106.797 18L105.397 16.85L104.647 16.2L102.897 15L101.947 14.15L98.5969 11.4L97.2469 10.25L96.8969 9.9L97.0969 9.6L97.7969 10.15L98.9969 11.2L100.497 12.35L101.347 13.1L102.297 13.8L103.397 14.9L104.947 15.85L105.947 16.65L107.347 17.9L107.947 18.4L107.997 18.6ZM96.6969 12.45L96.6469 12L96.7969 11.85L97.7969 12.6L98.5469 13.2L99.5969 14L100.697 15.1L101.747 15.8L102.847 16.55L103.847 17.6L104.847 18.4L106.747 19.7L107.547 20.65L107.447 20.9L107.047 20.6L105.547 19.4L104.397 18.65L103.347 17.8L102.347 16.85L101.247 16L100.047 15.15L98.9469 14.1L97.9969 13.35L96.6969 12.45ZM105.297 21.1L105.047 21.4L103.447 20.25L102.597 19.55L100.647 17.85L96.3969 14.6L96.2969 14.15L96.4469 14.05L97.2969 14.8L99.1469 16.15L101.147 17.75L104.047 20.1L105.297 21.1ZM105.797 14.9L105.997 14.6L106.797 15.1L107.697 15.7L108.347 16.5L108.247 16.8L107.947 16.5L106.947 15.7L105.797 14.9ZM102.647 21.35L102.097 21.45L100.647 20.5L99.6469 19.75L98.7469 18.95L96.8469 17.35L95.8969 16.25L95.9469 15.95L96.2969 16.2L97.6469 17.4L99.8469 19.25L101.747 20.75L102.647 21.35ZM101.497 23.05L101.547 23.3L101.297 23.5L100.197 22.45L97.0469 19.95L96.1969 19.35L95.3969 18.4L95.4969 18.15L96.1469 18.65L97.9469 20.1L99.3969 21.1L100.497 22.1L101.497 23.05ZM101.097 25.2V25.45L100.897 25.55L100.097 24.85L98.5969 23.65L96.9969 22.3L96.0469 21.55L95.0469 20.5L95.1469 20.25L96.0969 21.05L97.8469 22.45L98.6469 23.2L99.5969 23.9L100.397 24.5L101.097 25.2ZM94.6469 22.9L94.5969 22.6L94.8469 22.45L95.2969 22.9L96.1969 23.45L96.9469 24.2L98.1969 25.1L99.4469 26.1L100.197 26.65L100.797 27.45L100.697 27.8H100.597L99.6469 26.8L98.4969 26.05L97.3469 25.05L96.6969 24.6L95.7469 23.75L94.9469 23.2L94.6469 22.9ZM107.147 34.75L107.097 35L106.897 35.1L105.897 34.35L104.997 33.7L103.897 32.8L102.847 31.9L101.297 30.5L94.6469 25.4L94.0969 24.85L94.2469 24.55L94.8469 24.9L95.6969 25.65L96.2969 26.15L97.4469 26.9L99.2969 28.45L102.547 30.95L104.247 32.5L105.197 33.25L106.147 33.9L107.147 34.75ZM105.447 35.75L104.947 35.8L103.647 34.8L102.647 34.05L101.147 32.95L99.8969 31.85L99.0469 31.25L98.0969 30.55L96.0969 29L94.9969 28.1L93.8469 26.85L93.9469 26.65L94.8969 27.4L96.7469 28.8L97.5469 29.6L99.4969 31L100.397 31.7L101.397 32.5L102.397 33.2L104.347 34.8L105.447 35.75ZM102.397 35.8H101.947L99.4469 34.1L98.8469 33.55L97.5969 32.6L96.4969 31.55L95.2969 30.8L94.3969 30.1L93.4969 28.95L93.5969 28.65L94.0969 29.15L95.4469 30.35L96.9469 31.3L98.0469 32.4L99.0469 33.05L100.247 34.05L101.347 34.9L102.397 35.8ZM107.447 32.95L106.547 32.35L105.647 31.6L104.797 30.95L102.047 28.9L102.547 28.85L103.847 29.75L104.797 30.5L105.697 31.15L106.947 32.1L107.497 32.5L107.447 32.95ZM105.497 29.1L105.597 28.9H106.047L106.897 29.7L107.797 30.6L107.597 30.9L105.497 29.1ZM98.9969 35.45L99.1969 35.9H98.8469L97.9469 35.3L93.9969 32.1L93.0969 31.05L93.2969 30.9L95.6469 32.85L98.9969 35.45ZM96.3469 35.85L95.8469 35.9L94.2969 34.8L92.7969 33.6V33.05L96.3469 35.85ZM93.5969 36L92.9969 35.9L92.3969 35.6V35.2L93.5969 36ZM130.866 0.999998H131.666L135.466 4.1L135.166 4.35L134.666 3.95L133.266 2.85L130.866 0.999998ZM134.016 1.2L134.416 0.999998L135.566 1.7L136.266 2.4L136.166 2.7L134.016 1.2ZM116.216 1.4L116.466 1.05L117.516 1.95L118.116 2.5L119.316 3.25L122.016 5.55L122.916 6.3V6.8L121.116 5.45L120.066 4.45L118.916 3.45L117.616 2.6L116.216 1.4ZM119.516 1.55L119.066 1.05L119.566 1.1L121.816 2.85L122.566 3.6V3.95L121.316 3.05L119.516 1.55ZM129.116 1.6L129.366 1.5L130.116 2.15L130.916 2.75L131.716 3.55L133.266 4.65L134.066 5.4L134.566 5.9L134.416 6.25L133.516 5.45L132.466 4.8L131.416 4.05L130.266 2.9L129.116 1.95V1.6ZM123.316 9.2L123.466 9.55L123.416 9.6L122.616 9.1L121.016 7.7L119.016 6.05L116.866 4.35L115.666 3.25V2.85L116.616 3.65L118.516 5.05L120.266 6.45L122.116 8.05L123.316 9.2ZM128.266 3.25L128.366 3.2L129.316 4L130.116 4.8L131.066 5.45L131.966 6.1L133.266 7.15L133.616 7.7L133.466 8L132.416 7.15L131.466 6.35L130.466 5.6L128.866 4.25L128.266 3.55V3.25ZM127.566 5L132.466 8.9L132.716 9.25L132.566 9.65L131.666 9L130.816 8.25L129.166 6.95L128.316 6.25L127.516 5.3L127.566 5ZM123.716 11.65L123.816 12.05L123.666 12.15L119.416 8.8L117.866 7.45L115.966 6L115.916 5.6L116.016 5.55L116.766 6L118.216 7.25L119.966 8.6L121.666 10.05L122.616 10.75L123.716 11.65ZM131.866 10.9L131.916 11.1L131.716 11.35L129.766 9.95L128.366 8.75L127.516 8.05L126.566 7.25L126.766 7L127.816 7.7L128.716 8.4L129.566 9.1L130.666 10.05L131.366 10.55L131.866 10.9ZM116.416 8.4L117.066 8.75L117.916 9.35L119.016 10.45L122.166 12.9L123.716 14.2L126.066 15.9L127.616 17.35L128.316 18.1L128.066 18.25L127.016 17.35L124.966 15.7L122.916 14.2L120.966 12.6L118.866 10.9L117.216 9.35L116.416 8.75V8.4ZM125.916 8.7L126.016 8.8L127.066 9.45L129.116 11.1L131.116 12.85L130.816 13.05L129.666 12.3L128.716 11.45L127.016 10L126.066 9.4L125.816 9L125.916 8.7ZM125.016 10.45H125.116L126.266 11.4L127.416 12.3L128.466 12.95L129.766 14.15L130.166 14.5L130.066 14.65L129.966 14.95L128.966 14L128.016 13.2L126.916 12.45L125.516 11.3L124.966 10.7L125.016 10.45ZM116.966 11.7L117.816 11.75L119.166 12.9L120.466 13.85L121.416 14.85L122.366 15.4L123.366 16.3L124.866 17.45L125.966 18.25L127.316 19.6L127.016 19.9L126.416 19.35L124.816 18.05L122.066 15.85L121.166 15.2L119.966 14.05L118.816 13.25L118.066 12.55L116.966 11.7ZM129.116 16.1L129.066 16.4L128.966 16.55L128.066 15.75L126.816 14.8L125.666 13.9L124.566 13L124.116 12.4L124.316 12.15L125.116 12.9L126.216 13.85L127.416 14.55L128.566 15.65L129.116 16.1ZM117.316 14L118.116 14.5L119.366 15.5L120.316 16.25L121.466 17.1L123.316 18.55L125.316 20.2L126.366 21.4L126.216 21.5L125.566 21.15L124.766 20.45L122.716 18.7L121.616 17.8L120.766 17.25L120.066 16.6L118.766 15.55L117.366 14.3L117.316 14ZM125.466 22.9L125.566 23.3L125.266 23.35L124.216 22.45L123.216 21.65L122.266 20.85L119.166 18.4L117.866 17.3L117.816 16.85L117.866 16.75L118.666 17.5L122.066 20.05L123.616 21.4L124.566 22.1L125.466 22.9ZM125.066 25.05L124.116 24.8L122.466 23.5L121.716 23L120.716 22L118.316 20.05L118.216 19.6L118.266 19.4L119.166 20.25L120.966 21.7L121.966 22.55L122.866 23.2L123.666 23.95L124.466 24.35L125.066 25.05ZM124.766 27V27.15L124.666 27.5L123.266 26.6L121.666 25.2L120.116 24.1L119.316 23.45L118.466 22.55L118.516 22.25L122.416 25.2L123.566 26.25L124.766 27ZM124.166 29.25V29.55L123.966 29.6L122.916 28.8L120.016 26.4L119.416 25.85L118.566 25.2L118.066 24.45L118.116 24.25L119.716 25.5L120.416 26.1L121.616 27L122.466 27.75L123.666 28.75L124.166 29.25ZM123.866 31.35L123.816 31.5L123.716 31.75L123.616 31.7L122.716 30.9L120.766 29.4L119.716 28.4L118.616 27.65L117.616 26.65L117.716 26.3L118.216 26.8L119.166 27.45L120.216 28.4L121.816 29.55L123.266 30.8L123.866 31.35ZM123.316 33.25V33.5L123.066 33.6L121.166 32.2L119.216 30.55L117.566 29.25L117.066 28.8L117.316 28.55L118.266 29.1L119.916 30.6L120.816 31.25L121.816 32L123.066 32.95L123.316 33.25ZM122.866 35.35L122.916 35.55L122.816 35.75L121.566 34.9L119.416 33.2L118.016 31.95L117.216 31.5L116.766 30.85L116.916 30.55L117.616 31.2L119.566 32.6L121.516 34.15L122.666 35.05L122.866 35.35ZM120.116 36L119.866 35.85L118.416 34.8L116.816 33.5L116.366 32.95L116.566 32.75L119.566 35.15L120.466 35.85V35.95H120.266L120.116 36ZM117.466 35.85H116.766L116.016 34.85L116.066 34.6L117.466 35.85ZM169.637 3.4L169.587 4.1L166.087 0.949998L166.687 1.05L168.237 2.2L169.637 3.4ZM154.037 0.999998L154.687 1.1L156.187 2.25L157.387 3.3L157.887 3.75L157.637 4.25L155.887 2.6L154.037 0.999998ZM158.087 2.35L156.687 1.1L157.337 0.999998L158.137 1.6L158.087 2.35ZM157.437 5.7V6.4L155.337 4.55L154.287 3.75L153.187 2.9L150.937 1.25L151.537 1.1L152.687 1.85L154.437 3.3L155.337 4L156.237 4.65L157.437 5.7ZM163.487 1.25L163.787 1.1L165.037 1.95L166.837 3.45L168.437 4.75L169.337 5.5L169.137 5.85L167.937 5L166.087 3.45L164.387 2.05L163.487 1.25ZM157.187 8.05L157.137 8.6L155.137 6.85L153.987 5.8L153.037 5.2L152.337 4.55L151.437 3.8L150.637 3.05L150.737 2.75L150.987 3L151.637 3.5L152.637 4.2L153.387 4.85L154.587 5.7L156.237 7.15L157.187 8.05ZM169.087 7.9H168.587L167.137 6.7L166.137 5.9L164.187 4.3L163.037 3.45L162.687 3.1L162.887 2.85L163.937 3.6L165.787 5.15L167.437 6.45L168.487 7.3L169.087 7.9ZM156.787 10.4L156.387 10.3L154.987 9.2L153.087 7.65L150.337 5.45V4.9L150.787 5.25L152.237 6.4L153.287 7.15L154.287 7.9L156.087 9.35L156.787 10.4ZM162.387 5.25L163.437 5.8L164.587 6.65L167.537 8.95L168.637 9.9L167.637 9.65L166.687 8.85L164.687 7.3L163.687 6.5L162.387 5.25ZM149.987 7.45L150.237 7.2L152.437 9.1L153.587 10.05L154.437 10.6L156.437 12.3L156.137 12.5L154.987 11.7L154.187 10.95L152.937 10.05L151.087 8.45L149.987 7.45ZM162.087 7.45L162.837 7.55L163.687 8.4L165.087 9.35L167.037 10.9L168.137 11.95L167.187 11.7L163.437 8.65L162.487 7.85L162.087 7.45ZM155.987 14.4L157.287 15.1L158.987 16.6L160.537 17.95L161.387 18.75L162.337 19.45L164.137 20.85L165.037 21.45L166.137 22.25L166.387 22.8L166.237 23L165.337 22.25L164.387 21.65L162.637 20.25L160.937 18.85L160.187 18.2L159.187 17.5L158.187 16.5L157.137 15.7L155.337 14.5L154.487 13.6L153.237 12.7L152.387 11.95L150.487 10.45L149.587 9.4L149.537 9.1L149.737 9.25L150.887 10.2L151.887 11L154.687 13.15L155.337 13.8L155.987 14.4ZM167.837 14.2L167.087 13.95L165.437 12.6L164.387 11.85L162.587 10.45L161.787 9.4L161.837 9.1L162.787 10L165.537 12.15L166.537 12.95L167.587 13.75L167.837 14.2ZM149.187 11.8L149.287 11.2L151.587 13.2L153.387 14.65L154.237 15.3L156.137 16.8L157.137 17.6L158.137 18.5L161.737 21.2L162.787 22.2L163.787 22.95L165.937 24.9L165.587 25L161.187 21.45L160.037 20.6L157.987 18.95L156.037 17.3L154.137 15.75L152.137 14.25L150.337 12.65L149.187 11.8ZM161.237 11.7L161.537 11.45L164.637 13.8L166.037 15.05L166.987 15.65L167.487 16.2L167.337 16.6L166.537 16L164.337 14.15L163.337 13.4L162.437 12.7L161.237 11.7ZM159.187 22.3L158.787 21.8L157.437 20.85L154.487 18.6L153.537 17.9L152.687 17.05L151.687 16.3L150.687 15.6L149.337 14.5L148.887 13.75L149.087 13.65L150.237 14.6L151.187 15.3L152.037 15.9L153.037 16.7L154.037 17.6L155.937 19.1L156.887 19.9L158.887 21.35L159.787 22.15L160.787 22.95L161.837 23.85L162.737 24.5L163.637 25.3L164.287 25.75L165.037 26.35L165.537 27L165.087 27.05L163.987 26.1L162.937 25.35L162.437 24.85L161.287 24L159.937 22.85L159.187 22.3ZM160.987 13.65L161.537 13.75L162.987 15.05L165.087 16.7L166.087 17.55L167.037 18.65L166.987 18.9L163.787 16.2L162.087 14.85L161.437 14.25L161.137 14.05L160.987 13.65ZM159.087 14.85H159.587L161.337 16.05L163.487 17.8L164.587 18.65L166.137 20L166.737 20.7L165.737 20.2L163.787 18.7L161.887 17.2L159.087 14.85ZM156.487 21.9L156.037 21.95L154.487 21.05L153.437 20.05L152.387 19.35L151.437 18.6L150.237 17.45L149.087 16.6L148.437 15.7L148.737 15.65L152.737 19L153.687 19.6L154.837 20.6L156.137 21.65L156.487 21.9ZM148.037 18.15L148.787 18.3L150.687 19.7L151.687 20.6L153.387 21.85L154.387 22.95L153.937 23L152.437 21.8L150.937 20.55L150.437 20.1L149.437 19.4L148.487 18.6L148.037 18.15ZM154.037 24.9L152.837 24.5L148.537 21.05L147.637 20.05V19.8L148.337 20.25L150.087 21.6L151.687 22.95L152.837 23.9L153.637 24.45L154.037 24.9ZM153.487 27.15L152.587 26.75L150.787 25.15L148.787 23.55L147.637 22.65L147.287 22.25H147.737L149.037 23.25L150.687 24.65L151.587 25.25L152.837 26.4L153.487 27.15ZM153.037 28.95L152.637 29.15L151.437 28.25L150.487 27.55L149.587 26.75L147.737 25.35L146.937 24.3L147.487 24.45L148.887 25.6L150.787 27.2L151.837 27.95L153.037 28.95ZM158.737 24.4L159.787 24.55L160.637 25.25L161.587 25.95L162.487 26.7L163.587 27.85L165.087 29.1L164.487 29.05L162.987 27.9L162.237 27.05L161.237 26.25L158.737 24.4ZM146.537 26.5L146.787 26.3L148.037 27.3L148.987 28.05L149.987 28.8L151.787 30.25L152.587 31.15V31.5L151.687 30.85L147.087 27.2L146.537 26.5ZM158.337 26.45L159.537 26.8L161.637 28.35L163.287 29.75L164.287 30.65L164.887 31.15L164.387 31.3L163.037 30.25L162.137 29.45L161.187 28.65L160.187 27.95L158.937 26.95L158.337 26.45ZM152.337 33.2L151.287 33L150.387 32.35L147.137 29.6L146.187 28.5L146.387 28.4L147.587 29.35L148.637 30.2L151.487 32.55L152.337 33.2ZM164.587 33.3L163.537 33L162.537 32.15L160.987 31L159.237 29.65L157.987 28.5L158.987 28.8L160.637 30.1L164.587 33.3ZM164.137 35.4L162.987 35.05L162.087 34.4L161.137 33.5L159.987 32.75L158.537 31.5L157.637 30.8L157.887 30.45L159.187 31.35L161.387 33.2L162.737 34.2L164.137 35.4ZM145.737 30.8L145.937 30.6L147.087 31.4L148.837 32.9L149.687 33.65L150.687 34.3L151.887 35.3L151.587 35.5L150.237 34.6L149.187 33.8L147.037 32L145.737 30.8ZM157.437 32.4L157.787 32.7L158.987 33.7L159.887 34.35L161.337 35.45L161.437 36.05L160.287 35.3L158.587 33.95L157.437 32.75V32.4ZM145.387 32.8L146.187 33.2L147.087 33.8L148.037 34.55L148.737 35.25L149.737 35.9L149.037 36.05L146.487 33.95L145.337 33.1L145.387 32.8ZM146.187 35.8L145.887 35.9L144.837 35.2L145.087 34.55L146.187 35.8ZM158.787 36.05L157.987 35.95L157.137 35.2L157.187 34.65L158.787 36.05ZM177.134 1.1L177.584 1.25L178.434 2.05L179.434 2.8L180.484 3.85L181.934 4.9L182.484 5.45L182.434 5.9L181.934 5.45L181.434 4.95L180.184 4.15L178.884 3L178.084 2.4L177.334 1.75L176.784 1.3V1.2L177.134 1.1ZM179.884 1.25L179.984 1.1L180.434 1.15L181.284 1.85L182.134 2.45L183.034 3.4L182.984 3.7L181.034 2.2L179.884 1.25ZM182.184 7.6L182.234 7.7L182.134 7.9L181.984 7.95L180.984 7.15L179.284 5.85L177.734 4.5L176.834 3.85L175.734 2.8L175.934 2.4L176.784 3.15L177.684 3.8L178.534 4.6L180.184 5.95L181.684 7L182.184 7.6ZM175.284 4.8L175.984 5.05L177.734 6.35L178.834 7.3L180.884 8.85L181.734 9.85V10.05L181.484 9.9L180.534 9.25L177.084 6.4L175.684 5.4L175.384 5.1L175.284 4.8ZM174.934 7L175.784 7.2L176.534 7.95L177.734 8.65L178.734 9.55L179.984 10.6L180.884 11.25L181.434 12L181.334 12.25L181.134 12.15L180.334 11.45L179.384 10.8L178.434 9.9L177.584 9.15L176.284 8.2L175.584 7.6L174.934 7ZM174.634 9.25L174.684 9L174.884 8.85L175.934 9.75L176.834 10.4L177.734 11.1L179.784 12.8L180.984 14.05L180.884 14.35L179.984 13.6L179.184 12.95L177.184 11.3L175.284 9.85L174.634 9.25ZM174.184 11.35V11.1L174.284 10.95L175.034 11.5L175.934 12.1L176.534 12.7L178.284 14.05L180.034 15.5L180.684 16.35L180.634 16.6L179.934 16.1L178.384 14.75L177.434 14L176.134 12.95L175.534 12.4L174.634 11.75L174.184 11.35ZM180.284 18.2L180.384 18.3L180.284 18.45L180.134 18.6L178.884 17.65L177.334 16.35L175.134 14.6L173.884 13.35L173.934 13.05L174.584 13.55L175.934 14.8L176.934 15.4L177.934 16.3L178.884 17.05L180.084 17.95L180.284 18.2ZM179.834 20.25L179.884 20.5L179.734 20.75L178.784 19.8L174.534 16.55L173.434 15.55L173.584 15.2L173.934 15.55L175.184 16.55L176.184 17.2L177.134 18L178.984 19.4L179.834 20.25ZM179.484 22.3L179.334 22.75L178.284 22L177.434 21.25L176.534 20.6L175.784 19.9L174.534 19.1L173.284 18L173.034 17.55L173.284 17.35L174.084 18.1L175.184 18.95L176.034 19.5L176.834 20.2L178.334 21.3L179.484 22.3ZM172.784 20L172.734 19.6L172.834 19.5L173.184 19.75L174.184 20.55L175.334 21.55L177.034 22.75L178.484 24.05L179.184 24.55L179.084 24.9L178.034 24.3L176.534 22.9L174.884 21.85L173.584 20.6L172.784 20ZM178.884 26.85V27.05L178.784 27.3L177.834 26.55L173.734 23.2L172.784 22.55L172.434 22L172.484 21.65L173.634 22.55L175.234 23.75L176.634 25.05L177.634 25.85L178.784 26.75L178.884 26.85ZM178.484 28.9L178.334 29.35L177.434 28.6L176.284 27.6L175.484 27.05L172.934 25L172.084 24.15V23.8L173.384 24.75L175.034 26.05L175.784 26.65L176.734 27.3L177.834 28.3L178.484 28.8V28.9ZM171.734 26.45L171.884 26.05L173.984 27.55L175.084 28.45L176.284 29.6L177.234 30.25L178.134 31.05L178.034 31.4L175.984 29.9L174.984 29.1L174.034 28.3L172.734 27.15L172.184 26.9L171.734 26.45ZM177.834 33.1L177.784 33.2L177.684 33.55L176.484 32.75L175.684 32.1L174.534 31.1L173.384 30.2L172.234 29.25L171.584 28.8L171.134 28.45L171.284 28L171.934 28.45L173.084 29.3L175.484 31.3L177.034 32.65L177.784 33.05L177.834 33.1ZM177.284 35.3L177.334 35.5L177.134 35.65L176.434 35.2L174.934 33.85L174.084 33.2L172.334 31.7L171.184 30.8L170.834 30.3L170.934 30L171.884 30.75L172.834 31.6L173.784 32.3L175.784 34.1L177.134 35.15L177.284 35.3ZM174.334 35.35L174.884 36.05L174.384 35.95L173.834 35.5L173.034 34.75L171.734 33.75L170.434 32.7L170.534 32.25L170.834 32.45L172.134 33.4L173.334 34.4L174.334 35.35ZM171.934 36L171.584 35.9L170.684 35.3L170.034 34.6L170.134 34.4L171.734 35.55L172.084 35.9L172.034 35.95L171.934 36ZM189.818 1.05L190.218 1.1L191.118 2.05L192.018 2.6L193.118 3.65L194.418 4.5L195.068 5.15L195.718 5.85L195.568 6.15L194.118 4.9L192.868 4L191.568 2.85L190.818 2.4L190.018 1.7L189.568 1.25V1.1L189.818 1.05ZM193.118 1.6L192.768 1.05L193.268 1.1L194.218 1.85L195.118 2.6L196.018 3.65L195.918 3.95L194.868 3.05L193.118 1.6ZM195.268 7.75V8L195.068 8.2L194.318 7.6L193.618 6.9L192.518 6.2L191.568 5.35L189.918 3.9L189.068 3V2.7L189.568 3.05L190.968 4.2L192.918 5.9L194.168 6.75L195.268 7.75ZM194.818 9.8L194.768 10.2L193.468 9.3L192.368 8.5L191.418 7.65L189.618 6.15L188.568 5.35L188.718 5L189.818 5.75L190.818 6.5L192.168 7.8L193.668 8.85L194.818 9.8ZM194.518 12L194.468 12.25L194.318 12.45L193.968 12.15L193.018 11.4L192.168 10.75L191.018 9.65L190.068 8.95L188.568 7.8L188.218 7.25L188.368 6.95L189.368 7.85L191.418 9.35L192.768 10.6L193.868 11.35L194.518 12ZM187.918 9L189.218 10.05L191.068 11.6L192.018 12.3L192.918 13.1L193.918 14.25V14.5L193.668 14.35L191.468 12.55L190.468 11.65L188.718 10.3L187.968 9.7L187.868 9.3L187.918 9ZM187.568 11.5L188.418 11.85L189.218 12.6L190.168 13.3L191.068 14L191.918 14.7L193.118 15.8L193.618 16.2V16.5L193.518 16.7L192.618 16L191.018 14.6L188.968 13L188.218 12.3L187.568 11.8V11.5ZM193.468 18.35L193.318 18.65L193.168 18.75L192.018 17.9L191.118 17.25L189.918 16.3L189.218 15.6L187.918 14.65L187.118 13.75L187.268 13.55L188.418 14.45L189.518 15.15L190.418 16.1L191.368 16.8L192.318 17.55L193.368 18.35H193.468ZM192.968 20.55V20.65L192.918 20.9L192.768 20.95L191.768 20L190.918 19.3L190.018 18.6L188.018 17.1L186.768 15.95L186.868 15.6L187.868 16.35L188.818 17.15L190.768 18.6L192.318 19.95L192.968 20.55ZM192.618 22.6L192.568 23L192.418 23.05L191.218 22.1L190.118 21.15L189.168 20.5L188.218 19.7L187.118 18.85L186.418 17.9L186.518 17.7L186.918 18.1L187.868 18.85L188.918 19.6L189.418 20.1L190.768 21L192.168 22.2L192.618 22.6ZM192.268 24.7L192.218 25L192.018 25.1L191.468 24.6L190.568 24L189.468 23.1L187.618 21.75L186.318 20.55L185.968 20.05L186.068 19.8L186.818 20.3L187.968 21.4L189.818 22.7L191.018 23.9L192.268 24.7ZM191.868 27.05L191.968 27.25L191.918 27.45L191.718 27.5L190.768 26.7L189.818 26L188.918 25.25L187.618 24.05L185.518 22.3L185.618 22L186.768 22.75L187.768 23.6L190.868 26.2L191.868 27.05ZM197.618 33.9L197.518 33.95L197.568 34.15L197.268 34.25L196.068 33.25L194.968 32.35L191.718 29.75L190.018 28.5L188.968 27.6L188.168 26.95L186.968 26L185.668 25.05L185.218 24.45L185.418 24.2L186.618 25.05L191.168 28.75L193.268 30.4L195.418 32.15L196.368 32.9L197.518 33.75L197.618 33.9ZM196.468 35.7L196.268 35.6L195.118 35.05L193.868 33.85L192.218 32.65L190.618 31.35L189.618 30.45L188.318 29.55L186.618 28.05L185.268 27.05L184.818 26.55L184.968 26.3L186.168 27L187.168 27.9L188.918 29.45L190.618 30.6L191.668 31.6L192.918 32.55L193.768 33.25L194.818 34L195.418 34.65L196.368 35.3L196.768 35.6L196.718 35.65H196.568L196.468 35.7ZM193.518 35.4V35.85L192.218 35.05L191.268 34.45L190.568 33.7L189.068 32.65L187.168 30.95L185.218 29.35L184.318 28.55L184.368 28.25L185.068 28.7L186.468 29.75L187.718 30.75L188.918 31.9L189.768 32.6L190.918 33.35L191.868 34.35L193.518 35.4ZM194.218 29.3L194.318 29.1L194.768 29.15L195.818 30.05L196.868 30.85L197.918 31.95L197.768 32.25L196.668 31.3L195.668 30.4L194.218 29.3ZM196.918 29.1H197.518L198.218 29.7L198.168 30L197.518 29.55L196.918 29.1ZM190.818 35.65L190.518 35.85L188.968 35L187.068 33.3L186.068 32.55L185.118 31.8L184.118 30.75V30.4L185.218 31.3L186.268 32.1L188.318 33.8L189.368 34.75L190.818 35.65ZM187.118 35.25V35.8L185.518 34.55L184.068 33.5L183.668 32.9L183.818 32.6L184.918 33.4L186.218 34.45L187.118 35.25ZM183.168 34.8L183.218 34.7L184.068 35.2L184.268 35.85L183.368 35.25L183.168 34.8ZM207.396 1.05L207.796 1.1L208.696 2.05L209.596 2.6L210.696 3.65L211.996 4.5L212.646 5.15L213.296 5.85L213.146 6.15L211.696 4.9L210.446 4L209.146 2.85L208.396 2.4L207.596 1.7L207.146 1.25V1.1L207.396 1.05ZM210.696 1.6L210.346 1.05L210.846 1.1L211.796 1.85L212.696 2.6L213.596 3.65L213.496 3.95L212.446 3.05L210.696 1.6ZM212.846 7.75V8L212.646 8.2L211.896 7.6L211.196 6.9L210.096 6.2L209.146 5.35L207.496 3.9L206.646 3V2.7L207.146 3.05L208.546 4.2L210.496 5.9L211.746 6.75L212.846 7.75ZM212.396 9.8L212.346 10.2L211.046 9.3L209.946 8.5L208.996 7.65L207.196 6.15L206.146 5.35L206.296 5L207.396 5.75L208.396 6.5L209.746 7.8L211.246 8.85L212.396 9.8ZM212.096 12L212.046 12.25L211.896 12.45L211.546 12.15L210.596 11.4L209.746 10.75L208.596 9.65L207.646 8.95L206.146 7.8L205.796 7.25L205.946 6.95L206.946 7.85L208.996 9.35L210.346 10.6L211.446 11.35L212.096 12ZM205.496 9L206.796 10.05L208.646 11.6L209.596 12.3L210.496 13.1L211.496 14.25V14.5L211.246 14.35L209.046 12.55L208.046 11.65L206.296 10.3L205.546 9.7L205.446 9.3L205.496 9ZM205.146 11.5L205.996 11.85L206.796 12.6L207.746 13.3L208.646 14L209.496 14.7L210.696 15.8L211.196 16.2V16.5L211.096 16.7L210.196 16L208.596 14.6L206.546 13L205.796 12.3L205.146 11.8V11.5ZM211.046 18.35L210.896 18.65L210.746 18.75L209.596 17.9L208.696 17.25L207.496 16.3L206.796 15.6L205.496 14.65L204.696 13.75L204.846 13.55L205.996 14.45L207.096 15.15L207.996 16.1L208.946 16.8L209.896 17.55L210.946 18.35H211.046ZM210.546 20.55V20.65L210.496 20.9L210.346 20.95L209.346 20L208.496 19.3L207.596 18.6L205.596 17.1L204.346 15.95L204.446 15.6L205.446 16.35L206.396 17.15L208.346 18.6L209.896 19.95L210.546 20.55ZM210.196 22.6L210.146 23L209.996 23.05L208.796 22.1L207.696 21.15L206.746 20.5L205.796 19.7L204.696 18.85L203.996 17.9L204.096 17.7L204.496 18.1L205.446 18.85L206.496 19.6L206.996 20.1L208.346 21L209.746 22.2L210.196 22.6ZM209.846 24.7L209.796 25L209.596 25.1L209.046 24.6L208.146 24L207.046 23.1L205.196 21.75L203.896 20.55L203.546 20.05L203.646 19.8L204.396 20.3L205.546 21.4L207.396 22.7L208.596 23.9L209.846 24.7ZM209.446 27.05L209.546 27.25L209.496 27.45L209.296 27.5L208.346 26.7L207.396 26L206.496 25.25L205.196 24.05L203.096 22.3L203.196 22L204.346 22.75L205.346 23.6L208.446 26.2L209.446 27.05ZM215.196 33.9L215.096 33.95L215.146 34.15L214.846 34.25L213.646 33.25L212.546 32.35L209.296 29.75L207.596 28.5L206.546 27.6L205.746 26.95L204.546 26L203.246 25.05L202.796 24.45L202.996 24.2L204.196 25.05L208.746 28.75L210.846 30.4L212.996 32.15L213.946 32.9L215.096 33.75L215.196 33.9ZM214.046 35.7L213.846 35.6L212.696 35.05L211.446 33.85L209.796 32.65L208.196 31.35L207.196 30.45L205.896 29.55L204.196 28.05L202.846 27.05L202.396 26.55L202.546 26.3L203.746 27L204.746 27.9L206.496 29.45L208.196 30.6L209.246 31.6L210.496 32.55L211.346 33.25L212.396 34L212.996 34.65L213.946 35.3L214.346 35.6L214.296 35.65H214.146L214.046 35.7ZM211.096 35.4V35.85L209.796 35.05L208.846 34.45L208.146 33.7L206.646 32.65L204.746 30.95L202.796 29.35L201.896 28.55L201.946 28.25L202.646 28.7L204.046 29.75L205.296 30.75L206.496 31.9L207.346 32.6L208.496 33.35L209.446 34.35L211.096 35.4ZM211.796 29.3L211.896 29.1L212.346 29.15L213.396 30.05L214.446 30.85L215.496 31.95L215.346 32.25L214.246 31.3L213.246 30.4L211.796 29.3ZM214.496 29.1H215.096L215.796 29.7L215.746 30L215.096 29.55L214.496 29.1ZM208.396 35.65L208.096 35.85L206.546 35L204.646 33.3L203.646 32.55L202.696 31.8L201.696 30.75V30.4L202.796 31.3L203.846 32.1L205.896 33.8L206.946 34.75L208.396 35.65ZM204.696 35.25V35.8L203.096 34.55L201.646 33.5L201.246 32.9L201.396 32.6L202.496 33.4L203.796 34.45L204.696 35.25ZM200.746 34.8L200.796 34.7L201.646 35.2L201.846 35.85L200.946 35.25L200.746 34.8Z" fill="#8F97A3"/>
</svg>
