<svg width="226" height="52" viewBox="0 0 226 52" fill="none" xmlns="http://www.w3.org/2000/svg">
<path d="M8.2 37.7H10.3L11.05 37.65L11.65 37.55L12.4 37.35L13.05 37.05L13.65 36.8L14.15 36.45L14.6 36.1L15.35 35.7L15.75 35.2L16.1 34.6L16.45 34.05L16.8 33.5L17.15 32.85V32.15L17.25 31.5L17.4 30.2L17.15 29.4L17.1 28.85L16.65 28.25L16.35 27.65L16.05 27.05L15.45 26.65L14.85 26.2L14.4 25.7L13.9 25.35L13.2 25.05L12.8 24.7L10.9 23.7L10.35 23.25L9.8 22.9L9.2 22.45L8.8 21.9L8.45 21.25L8.6 20L8.7 19.3L9.1 18.8L9.55 18.2L10.15 17.9L10.8 17.6L11.3 17.5L12.65 17.55L13.4 17.65L14.1 17.95L14.55 18.35L15.05 18.85L15.2 19.55L15.45 20.15L16.15 20.9L17.6 20.8L18.4 20.9L19.2 20.2L19.15 19.45L18.95 18.75V18.2L18.5 17.55L18.25 16.9L17.85 16.35L17.4 15.8L16.95 15.35L16.3 15L15.55 14.75L14.9 14.4L14.45 14.3L13.7 14.05L13 14.1L11.45 14.05L10.9 14.15L10.2 14.2L9.45 14.4L8.65 14.75L8.05 14.95L7.45 15.45L6.85 15.9L6.45 16.3L5.95 16.95L5.6 17.55L5.3 18.2L5.05 18.8L4.85 19.55V20.3V21.75L4.9 22.4L5.1 23.1L5.45 23.65L6 24.35L6.3 24.8L6.95 25.35L7.45 25.7L8 26.1L8.65 26.55L9.45 26.85L10.1 27.25L10.55 27.55L11.3 27.95L11.8 28.35L12.25 28.95L12.85 29.5L13.05 30.1L13 31.4L12.8 32.1L12.4 32.6L11.85 33.05L11.35 33.35L10.85 33.6L10.2 33.8L9.4 33.85H8L7.3 33.8L6.6 33.65L5.95 33.5L5.35 33.25L4.5 32.95L3.85 32.6L3.4 32.2L2.35 32.35L1.9 32.9L1.5 33.4L1.25 33.95L0.75 34.5L1.05 35.5L1.7 35.85L2.35 36.1L2.95 36.5L3.5 36.75L4.2 36.9L4.7 37.25L5.35 37.3L6.1 37.55H6.9L7.5 37.75L8.2 37.7ZM48.9145 26.15L48.7645 25.25L47.9645 24.8L47.0645 24.95L46.6145 25.5L46.4645 26.25L45.9645 26.85L45.7645 27.4L45.2145 28.05L45.0145 28.7L44.5645 29.15L44.0145 29.85L43.7645 30.35L43.3145 30.95L42.9645 31.6L42.4645 32.1L41.8145 32.55L41.3645 33.2L40.9645 33.65L40.4145 34.15L39.3645 35.15L38.8145 35.55L38.1645 36L37.5145 36.3L36.9145 36.6L36.4645 36.65L36.7645 35.75L37.0645 35.15L37.1645 34.4L37.3645 33.65L37.5145 33.05L37.7645 32.35L37.9145 31.65L38.2145 31L38.4645 30.3L38.7645 29.65L38.8145 28.95L39.1145 28.35L39.3145 27.65L39.4645 26.95L39.6645 26.3L39.8145 25.65L40.0645 24.9L40.3645 24.3L40.6645 23.55L41.0645 22.2L41.2645 21.6L41.3645 20.85L41.6145 20.25L41.8645 19.55L42.0645 18.8L42.3145 18.15L42.4645 17.5L42.8145 16.75L42.9145 16.05L43.1645 15.5L42.6645 14.75H41.3145L40.5145 14.7L39.8645 14.75L38.9145 15.45L38.8145 16.05L38.6645 16.85L38.2145 17.45L38.0145 18.1L37.7645 18.85L37.5145 19.45L37.2645 20.2L37.1145 20.85L36.8645 21.45L36.7145 22.15L36.3145 22.8L36.1645 23.35L35.8145 24.05L35.3645 24.65L35.2145 25.4L34.9145 25.95L34.5145 26.65L34.2645 27.25L33.8645 27.85L33.4645 28.35L33.0645 29L32.6645 29.55L32.1145 30.1L31.6145 30.55L31.2145 31.15L30.5145 31.55L30.0145 31.9L29.5145 32.3L28.9145 32.5L28.2145 32.55L26.8645 32.6L26.2645 32.4L25.7145 31.95L25.4145 31.4L25.1145 30.65L25.0145 29.3L25.0645 28.75L25.1645 28.05L25.3145 27.4L25.5145 26.65L25.7645 25.95L25.7145 25.25L25.9645 24.7L26.1145 24.05L26.4645 23.35L26.6645 22.6L26.8645 22L26.9145 21.4L27.2645 20.65L27.4645 20L27.6145 19.35L27.9645 18.65L28.0645 18L28.2145 17.4L28.6145 16.8L28.7145 16.1L28.8645 15.45L28.3645 14.8L27.7645 14.75L27.0145 14.7L26.3145 14.8L25.3645 14.75L24.6145 15.5L24.4145 16.1L24.1145 16.75L23.7645 17.5L23.5145 18.15L23.4645 18.85L23.1645 19.45L22.9645 20.15L22.8145 20.85L22.4645 21.45L22.4145 22.1L22.2645 22.9L21.9645 23.45L21.7145 24.2L21.5645 24.9L21.4645 25.6L21.2645 26.25L20.9645 26.95L20.9145 27.6L20.8645 28.2L20.7645 29L20.5145 29.65L20.6645 30.3L20.6145 31.55L20.5645 32.25L20.8145 32.95L20.9645 33.7L21.3645 34.3L21.7145 34.85L22.2645 35.35L22.7645 35.8L23.3645 36.1L24.0145 36.35L25.5145 36.6L26.7645 36.65L27.4145 36.55L28.0645 36.4L28.8145 36.1L29.5145 35.8L30.1145 35.4L31.2145 34.6L31.5645 34.2L32.1145 33.7L32.5145 33.15L32.9645 32.65L33.6145 31.95L33.4145 32.7L33.2645 33.35L33.0645 33.95L32.8645 34.6L32.7645 35.3L32.5145 35.85L31.9645 37.4L31.0645 38.35L30.3145 38.4L29.6645 38.65L28.9645 38.7L28.3145 39L26.8645 39.35L26.0145 39.5L25.3645 39.75L24.7145 39.95L24.0645 40.15L23.3145 40.4L22.6645 40.75L22.1145 41.05L21.5645 41.45L20.9145 41.95L20.3645 42.3L20.1145 42.85L19.5145 43.4L19.3645 43.95L18.9145 44.6L18.8645 45.3L18.7145 46L18.6145 47.45L18.7145 48L18.9145 48.75L19.3145 49.35L19.5645 49.9L20.0645 50.4L20.5145 50.85L21.1145 51.15L21.6645 51.5L22.4645 51.8L23.1145 51.85L23.8145 51.95H24.9645L25.7145 51.85L26.4145 51.7L27.0145 51.5L27.8145 51.35L28.3645 51L28.9645 50.65L29.5145 50.1L29.9145 49.65L30.4645 49.15L31.0145 48.7L31.2645 48.2L31.7145 47.55L32.0645 46.95L32.5645 46.4L32.8145 45.75L33.2645 45.1L33.5645 44.55L33.7645 43.9L34.0645 43.3L34.4145 42.55L34.6645 42L34.9145 41.3L35.1145 40.65L35.9645 39.8L36.7645 39.55L37.2645 39.15L37.9645 38.95L38.5145 38.55L39.1145 38.15L39.7145 37.7L40.3145 37.25L40.8645 36.85L41.3145 36.35L42.0645 35.85L42.5645 35.45L42.8645 34.9L43.4145 34.45L43.9645 33.8L44.2645 33.35L44.7645 32.8L45.2145 32.25L45.6645 31.65L46.1145 31.05L46.5645 30.4L46.8645 29.85L47.1645 29.25L47.6145 28.7L47.9645 28.05L48.2145 27.4L48.6145 26.8L48.9145 26.15ZM25.1645 48.2H23.6645L23.0645 47.9L22.4645 47.5L22.1145 46.9L22.2645 45.4L22.5145 44.75L22.8145 44.2L23.3145 43.65L24.0145 43.25L24.6145 42.95L25.2145 42.55L25.8145 42.35L26.5145 42.15L27.1645 41.85L28.0645 41.75L28.6145 41.5L29.3645 41.4L30.0145 41.25L30.6145 41.6L30.3145 42.35L29.8645 43L29.6645 43.6L29.3645 44.2L28.9145 44.8L28.6145 45.3L28.1645 45.9L27.7145 46.35L27.2645 46.85L26.7645 47.35L26.2645 47.75L25.6645 48.05L25.1645 48.2ZM53.6121 37.75L54.9621 37.7L55.6621 37.65L56.3121 37.6L56.7621 37.4L57.5621 37.05L58.0621 36.85L58.7621 36.4L59.3621 36L60.3621 35.1L60.6121 34.65L61.1121 34.1L61.4121 34.75L61.6121 35.5L62.0121 36L62.2621 36.55L62.8121 37.1L63.5621 37.3L64.1121 37.55L64.7621 37.75L66.1621 37.8L66.9121 37.6L67.5621 37.35L68.3121 37.15L68.8121 36.75L69.3121 36.3L70.0121 35.9L70.4121 35.45L71.1121 35L71.5621 34.45L71.9121 33.85L72.5621 33.3L72.8621 32.85L73.3621 32.3L73.6121 31.7L74.1121 31.1L74.4621 30.5L74.8121 29.95L75.3121 29.3L75.6621 28.6L76.0621 28.05L76.5121 27.5L76.7621 26.8L77.1621 26.25L76.8621 25.2L76.2121 24.8L75.1621 25L74.8121 25.55L74.5121 26.25L74.2621 26.75L73.7121 27.45L73.5121 28.05L73.0621 28.55L72.4621 29.2L72.1121 29.8L71.7621 30.25L71.2621 30.9L70.7121 31.4L70.2121 31.95L69.8121 32.45L69.2621 32.85L68.6121 33.15L68.1621 33.5L67.5121 33.75L66.1621 33.65L65.7621 33.4L65.3121 32.85L65.3621 31.5L65.4121 30.85L65.6621 30.1L65.7621 29.4L66.0121 28.8L65.9621 28.1L66.2621 27.4L66.5121 26.75L66.4621 26.05L66.7121 25.35L67.0621 24.8L67.1121 24.05L67.3621 23.4L67.4621 22.75L67.7621 22.1L67.9621 21.45L68.0121 20.75L68.2121 20.05L68.4621 19.4L68.6621 18.75L68.8121 18.1L69.1121 17.4L69.3621 16.75L69.6121 16.05L69.7621 15.5L69.9121 14.8L70.1621 14.05L70.4121 13.4L70.5621 12.8L70.8121 12.15V11.4L71.2121 10.75L71.4121 10.15L71.6121 9.4L71.7121 8.75L71.9621 8.2L72.2121 7.5L72.3621 6.75L72.4121 6.1L72.7621 5.4L72.9121 4.85L73.0121 4.1L73.2121 3.45L73.4621 2.8L73.7621 2.15L74.0121 1.5L73.3121 0.849998L72.6121 0.749999L72.1621 0.799998L71.3621 0.749999L70.6621 0.799998L69.8121 1.5L69.6621 2.15L69.4121 2.85L69.1121 3.45L69.0621 4.1L68.8121 4.75L68.6621 5.4L68.4621 6.15L68.2621 6.7L68.0121 7.45L67.6621 8.1L67.5121 8.8L67.2621 9.35L67.1621 10.1L66.9121 10.7L66.8121 11.4L66.4621 12.05L66.2621 12.7L66.0621 13.4V14L65.6621 14.6V15.25L65.3121 16.05L65.2121 16.7L65.0121 17.25L64.7621 18L64.4621 18.6L64.2621 19.25L64.0621 18.65L63.8621 17.95L63.4621 17.25L63.2621 16.65L62.7621 16.2L62.4121 15.7L61.8621 15.2L61.1121 14.85L60.4121 14.55L59.7621 14.25L59.1121 14.15L58.4121 14.05L57.0121 14.1L56.3621 14.15L55.7621 14.25L55.1621 14.5L54.5121 14.65L53.6621 14.95L53.1121 15.4L52.5621 15.75L52.1121 16.2L51.5621 16.55L51.0621 17.1L50.3621 17.65L49.9121 18.05L49.6621 18.75L49.2621 19.3L48.9121 19.85L48.4121 20.4L48.1621 21.1L47.8121 21.8L47.6121 22.35L47.4121 23.1L47.1621 23.7L47.0621 24.4L46.7621 25.15V25.85L46.5621 26.5V27.15V27.85L46.6621 29.4L46.5621 30.1L46.7621 30.75V31.5L47.1121 32.05L47.4121 32.75L47.6621 33.45L47.8121 34L48.3621 34.55L48.8121 35.25L49.1121 35.75L49.8121 36.2L50.1621 36.5L50.8121 36.95L51.5121 37.2L52.0121 37.5L52.7621 37.6L53.6121 37.75ZM55.7121 33.75H54.5121L53.7121 33.5L53.1121 33.2L52.5621 32.7L52.0621 32.25L51.6121 31.65L51.3121 30.95L51.1621 30.2L51.0621 29.5L50.9121 28.8L50.7621 27.3L50.9621 26.6L50.9121 25.85L51.2121 25.25L51.3621 24.55L51.4121 23.85L51.8121 23.15L52.1621 22.5L52.4621 21.9L52.7121 21.2L53.3121 20.7L53.6621 20.15L54.3121 19.6L54.7121 19.15L55.4121 18.75L55.9121 18.55L56.6121 18.25L57.3621 18.15L58.8121 18.2L59.4121 18.25L60.6621 19.05L61.2621 19.55L61.6621 20.1L61.9121 20.75L62.0621 21.4L62.3621 22.15L62.4621 22.9L62.4121 24.3L62.3121 24.95L62.2121 25.7V26.4L61.9621 27.1L61.7121 27.65L61.6621 28.4L61.3121 29.05L61.1121 29.65L60.7621 30.2L60.3121 30.75L59.9121 31.4L59.3121 31.8L59.0121 32.3L58.3121 32.75L57.8621 33.1L57.1621 33.35L56.5621 33.6L55.7121 33.75ZM90.4754 37.75L91.6754 37.7L92.3754 37.55L93.0254 37.35L93.6754 37.2L94.3254 36.85L95.0754 36.4L96.1754 35.5L96.7254 34.95L97.1754 34.5L97.5754 33.95L97.9754 33.4L98.5754 32.85L98.8254 32.25L99.2754 31.7L99.6254 31L99.9754 30.5L100.475 29.85L100.775 29.25L101.225 28.7L101.725 28.1L102.075 27.45L102.275 26.9L102.725 26.25L102.575 25.15L101.925 24.7L100.675 24.9L100.475 25.5L100.125 26.2L99.7254 26.85L99.3254 27.45L98.9254 28L98.5754 28.55L98.1254 29.2L97.5754 29.75L97.2754 30.4L96.8254 30.9L96.3254 31.4L95.7754 31.9L95.2754 32.45L94.9254 32.8L94.3754 33.25L93.7254 33.45L93.0754 33.7L91.7254 33.55L91.1754 33.05L91.2254 31.5L91.2754 30.9L91.3754 30.2L91.7254 29.45L91.9254 28.85L92.1754 28.2L92.6254 27.45L92.7254 26.9L93.0754 26.15L93.3754 25.55L93.5754 24.95L93.8754 24.2L94.1754 23.55L94.3754 22.95L94.4754 22.25L94.5754 21.45L94.6254 20.8L94.8254 20.1L94.8754 18.65L94.7254 18L94.5754 17.35L94.3254 16.7L93.8254 16.15L93.3754 15.6L92.9754 15.15L92.5254 14.65L91.7754 14.35L91.1754 14.25L90.3254 14.1H89.0754L88.4254 14.25L87.8254 14.3L87.0254 14.55L86.6254 14.95L85.9254 15.25L85.3754 15.7L84.1754 16.55L83.6754 17L83.3254 17.45L82.8754 17.95L82.4754 18.5L81.9254 19.1L81.5754 19.65L81.2754 20.15L80.7754 20.75L80.5754 21.3L80.4754 20.7L80.6754 20.1L80.9754 19.35L80.9254 18.7L81.1254 18L81.2754 17.35L81.4754 16.7L81.5254 16.15L81.6754 15.4L81.1754 14.75H80.4754L79.7254 14.7H79.1254L78.1754 15.5L77.9754 16.05L77.6254 16.75L77.5754 17.5L77.4254 18.15L77.1254 18.85L76.9754 19.45L76.7754 20.1L76.5754 20.9L76.2754 21.55L76.0754 22.15L76.0254 22.9L75.7254 23.5L75.5254 24.2L75.3754 24.85L75.2254 25.55L74.9754 26.3L74.7754 26.85L74.5254 27.65L74.3254 28.3L74.1754 28.95L73.9754 29.6L73.8254 30.3L73.4754 31L73.2754 31.65L73.2254 32.25L72.9254 32.95L72.7254 33.6L72.4754 34.4L72.2754 35.05L72.2254 35.7L71.8254 36.35L72.4254 37.1L73.2754 36.95L73.9754 37.1L74.6254 37.05L75.1754 36.95L76.1254 36.35L76.3254 35.55L76.6254 34.9L76.9754 34.2L77.0754 33.5L77.3754 32.8L77.6754 32.15L77.8254 31.5L78.1754 30.8L78.3754 30.1L78.6754 29.35L79.0254 28.75L79.4754 28.1L79.7754 27.4L79.9754 26.75L80.2754 26L80.7254 25.45L81.0254 24.8L81.2754 24.15L81.7254 23.5L82.1254 22.9L82.5254 22.2L83.0754 21.7L83.4754 21.2L83.7254 20.65L84.2754 20.15L85.3254 19.25L85.8754 18.8L86.4254 18.5L87.0254 18.35L87.6254 18.15L88.7254 18.2L89.3754 18.55L89.9754 19.1L90.2254 19.8L90.3754 21.1L90.1254 21.8L89.9254 22.5L89.8254 23.2L89.6254 23.9L89.3254 24.45L89.0754 25.15L88.8754 25.8L88.4254 26.4L88.3754 27.1L88.1254 27.7L87.7754 28.4L87.5754 29.1L87.2254 29.65L87.0254 30.3V31L86.9254 31.8L86.7754 32.4L86.6754 33.85L86.8754 34.55L87.2254 35.2L87.3754 35.85L87.9254 36.5L88.4254 36.9L89.0754 37.25L89.6254 37.6L90.4754 37.75ZM108.622 37.75L110.022 37.8L110.822 37.75L111.622 37.65L112.272 37.45L112.972 37.4L113.572 37.15L114.122 36.9L114.722 36.7L115.572 36.35L116.122 36.05L116.622 35.7L117.272 35.3L118.422 34.45L118.922 34.1L119.472 33.55L119.872 33.05L120.272 32.55L120.772 32.1L121.272 31.5L121.622 31L122.022 30.35L122.472 29.85L122.922 29.3L123.422 28.6L123.672 28.1L123.972 27.5L124.272 26.9L124.622 26.3L124.472 25.2L123.822 24.8L122.922 24.95L122.372 25.6L122.022 26.15L121.572 26.9L121.172 27.45L120.872 27.95L120.272 28.6L120.022 29.15L119.472 29.7L118.872 30.15L118.322 30.6L117.872 31.15L117.272 31.45L116.672 31.9L116.172 32.2L115.472 32.55L114.872 32.8L114.072 33.15L113.622 33.3L112.872 33.45L112.172 33.6L111.622 33.75L110.872 33.85H109.672L108.922 33.7L108.222 33.6L107.522 33.3L106.972 33L106.422 32.55L106.072 32.05L105.622 31.4L105.272 30.8L105.072 30.2L105.022 29.45L105.522 28.8H106.222L107.022 28.6H107.672L108.172 28.4L109.072 28.25L109.622 28.15L110.472 28.05L111.122 27.8L111.672 27.55L112.372 27.35L112.972 27L113.672 26.65L114.322 26.45L115.272 25.55L115.872 25.2L116.472 24.7L116.872 24.15L117.322 23.65L117.622 23L117.922 22.45L118.222 21.85V21.2L118.322 20.4L118.272 19.05L118.322 18.45L118.072 17.8L117.872 17.1L117.522 16.5L117.072 15.95L116.622 15.6L116.022 15.05L115.572 14.8L114.772 14.5L114.272 14.25L113.522 14.1L112.972 14.05L110.822 14.1L110.172 14.3L109.472 14.4L108.872 14.6L108.172 14.85L107.572 15.15L106.772 15.5L106.272 15.8L105.672 16.3L105.122 16.7L104.772 17.2L104.122 17.65L103.722 18.3L103.372 18.75L102.922 19.35L102.522 20L102.222 20.65L101.922 21.2L101.722 21.85L101.272 22.45L101.072 23.2L100.872 23.8L100.672 24.55L100.722 25.15L100.522 25.95L100.572 26.55L100.472 27.25L100.372 28.75L100.472 29.4L100.572 30.15L100.722 30.9L100.972 31.45L101.172 32.15L101.472 32.85L101.722 33.5L102.122 34.05L102.522 34.7L102.972 35.2L103.472 35.65L103.972 36.15L104.772 36.5L105.422 36.85L105.972 37.15L106.722 37.35L107.272 37.5L108.072 37.65L108.622 37.75ZM105.422 26.1L104.772 25.3L105.072 24.7L105.272 23.9L105.472 23.25L105.622 22.6L105.972 21.95L106.422 21.25L106.922 20.7L107.172 20.15L107.772 19.7L108.422 19.15L108.822 18.75L109.622 18.45L110.172 18.15L110.972 18L112.372 18.05L113.022 18.2L113.622 18.6L114.022 19.1L114.172 19.7L114.222 21.05L114.022 21.75L113.722 22.35L113.322 22.95L112.772 23.55L112.372 24L111.772 24.3L111.072 24.75L110.522 25.05L109.672 25.25L109.022 25.45L108.372 25.7L107.572 25.75L106.822 25.85L106.172 26L105.422 26.1ZM146.585 32.15L146.485 31.1L145.735 30.65L144.635 30.75L144.435 31.35L143.785 31.8L143.385 32.3L142.935 32.9L142.635 33.35L141.985 33.9L141.635 34.35L140.985 34.75L140.485 35.2L139.885 35.6L138.785 36.45L138.185 36.8L137.535 36.75L138.035 35.75L138.185 35.05L138.435 34.4L138.585 33.65L138.935 33V32.35L139.235 31.75L139.485 30.95L139.635 30.35L139.835 29.65L139.985 29.05L140.385 28.3L140.535 27.7L140.785 27L141.035 26.3L141.185 25.55L141.385 24.95L141.585 24.25L141.785 23.55L141.935 22.95L142.285 22.2L142.535 21.5L142.735 20.85L142.835 20.15L143.035 19.55L143.185 18.85L143.535 18.1L143.735 17.55L143.935 16.8L144.285 16.15L144.435 15.45L143.935 14.75L143.335 14.8L142.535 14.7L141.785 14.8L141.085 14.7L140.085 15.4L139.935 16.05L139.735 16.85L139.535 17.45L139.435 18.2L139.035 18.85L138.735 19.4L138.685 20.15L138.385 20.8L138.085 21.4L137.735 22.15L137.635 22.8L137.285 23.4L136.985 24.05L136.735 24.7L136.435 25.3L136.085 26L135.735 26.55L135.335 27.15L135.085 27.8L134.735 28.45L134.185 28.95L133.685 29.55L133.435 30.05L132.885 30.6L132.485 31.1L131.935 31.55L131.335 31.95L130.735 32.2L130.135 32.4L129.385 32.65H128.235L127.585 32.4L126.835 31.9L126.485 31.4L126.285 30.75V29.3L126.385 28.75L126.435 28.05L126.535 27.35L126.635 26.65L126.985 26L126.935 25.25L127.285 24.7L127.535 23.95L127.635 23.25L127.685 22.7L128.135 22V21.35L128.485 20.65L128.535 20L128.835 19.3L129.185 18.65L129.285 18.1L129.435 17.35L129.735 16.8L130.035 16.05V15.45L129.535 14.8L128.785 14.75H126.685L125.835 15.5L125.485 16.15L125.335 16.85L125.135 17.4L124.935 18.2L124.735 18.75L124.335 19.4L124.285 20.2L123.935 20.85L123.685 21.55L123.535 22.2L123.485 22.85L123.135 23.55L122.885 24.15V24.85L122.535 25.5L122.485 26.15L122.335 26.95L122.185 27.65L121.985 28.3L121.885 28.9V29.55L121.735 30.3L121.835 31.55V32.35L122.035 33L122.235 33.65L122.635 34.25L123.085 34.75L123.585 35.25L123.985 35.7L124.685 36.1L125.185 36.35L125.885 36.6L126.635 36.65L128.135 36.7L128.635 36.5L129.435 36.4L130.035 36.15L130.635 35.75L131.335 35.5L131.835 35.05L132.385 34.65L132.935 34.2L133.285 33.6L133.785 33.1L134.335 32.65L134.635 31.95L134.585 32.7L134.335 33.3V33.95L134.185 34.55L133.885 35.3L133.785 35.85L133.335 37.3L132.285 38.35L131.635 38.45L130.885 38.65L130.235 38.8L129.335 39L128.835 39.1L127.985 39.3L127.335 39.55L126.735 39.65L125.885 39.9L125.385 40.25L124.735 40.5L123.885 40.8L123.435 41.1L122.785 41.55L122.135 41.85L121.685 42.3L121.135 42.8L120.735 43.45L120.485 44L120.285 44.65L119.985 45.4L119.885 46.05L120.035 47.35L119.935 48.05L120.185 48.75L120.535 49.3L120.835 49.95L121.335 50.4L121.735 50.85L122.385 51.15L123.035 51.55L123.485 51.75L124.135 51.9L124.935 52L126.385 51.95L127.085 51.8L127.585 51.7L128.235 51.6L128.985 51.25L129.485 50.95L130.035 50.55L130.635 50.1L131.285 49.7L131.585 49.25L132.235 48.7L132.635 48.2L133.035 47.5L133.285 46.95L133.735 46.4L134.085 45.8L134.285 45.2L134.785 44.5L134.935 43.95L135.335 43.3L135.485 42.55L135.785 41.95L135.985 41.4L136.235 40.7L137.235 39.8L137.885 39.55L138.385 39.25L139.185 39L139.685 38.6L140.235 38.35L140.885 37.95L141.435 37.55L141.985 37.15L142.485 36.65L142.985 36.25L143.435 35.8L143.985 35.3L144.485 34.75L144.885 34.2L145.385 33.75L145.835 33.15L146.085 32.6L146.585 32.15ZM126.285 48.2H124.885L124.185 48L123.685 47.5L123.485 46.9V45.4L123.735 44.7L124.135 44.2L124.535 43.7L125.235 43.2L125.735 42.95L126.535 42.55L127.035 42.3L127.735 42.1L128.385 41.85L129.285 41.75L129.835 41.5L130.535 41.4L131.235 41.25L131.685 41.7L131.535 42.3L131.285 43L130.985 43.55L130.585 44.2L130.235 44.8L129.735 45.3L129.385 45.85L129.035 46.35L128.435 46.9L128.085 47.4L127.435 47.7L126.985 48L126.285 48.2ZM176.07 37.8L177.47 37.75L178.17 37.65L178.67 37.4L179.37 37.05L179.97 36.7L180.62 36.4L181.12 35.95L181.57 35.45L182.22 34.95L182.72 34.4L183.72 33.25L184.12 32.7L184.47 32.25L184.87 31.65L185.32 30.95L185.67 30.45L186.02 29.8L186.57 29.25L186.82 28.65L187.27 28L187.52 27.45L187.97 26.8L188.37 26.3L188.12 25.15L187.52 24.8L186.32 24.95L186.07 25.6L185.67 26.1L185.37 26.8L184.97 27.4L184.47 28L184.22 28.6L183.62 29.2L183.27 29.7L182.87 30.35L182.37 30.85L181.87 31.4L181.52 31.95L180.97 32.4L180.52 32.85L180.02 33.25L179.32 33.5L178.67 33.7L177.27 33.5L176.87 32.9L176.72 31.55L176.87 30.85L177.17 30.1L177.42 29.5L177.62 28.85L177.77 28.15L178.07 27.45L178.37 26.8L178.57 26.25L178.87 25.6L179.27 24.85L179.57 24.25L179.77 23.6V22.8L180.17 22.15L180.12 21.45L180.32 20.75V20.1L180.52 18.6L180.42 17.9L180.07 17.25L179.82 16.7L179.42 16.05L178.87 15.45L178.47 15.1L177.97 14.65L177.17 14.4L176.57 14.25L175.97 14L174.42 14.05L173.72 14.15L173.12 14.3L172.47 14.65L171.72 14.95L171.22 15.2L170.52 15.65L169.92 16.15L169.47 16.5L169.02 16.95L168.32 17.6L167.97 18.05L167.57 18.55L167.07 19.25L166.52 19.8L166.67 19.05L167.07 18.35L167.47 17L167.62 16.45L167.87 15.7L167.97 15.1L168.07 14.4L168.27 13.75L168.67 13L168.77 12.35L169.02 11.6L169.22 11.05L169.32 10.3L169.82 8.95L170.02 8.2L170.22 7.55L170.37 6.95L170.52 6.3L170.77 5.55L170.87 4.95L171.17 4.25L171.37 3.55L171.52 2.85L171.67 2.25L171.87 1.55L171.57 0.749999H170.12L169.57 0.799998L168.87 0.749999L168.12 1.45L167.72 2.2L167.62 2.9L167.52 3.45L167.17 4.15L167.02 4.8L166.77 5.55L166.67 6.2L166.32 6.8L166.27 7.55L165.97 8.15L165.77 8.85L165.52 9.6L165.47 10.15L165.27 10.85L164.97 11.55L164.87 12.25L164.47 12.9L164.42 13.55L164.27 14.25L163.87 14.95L163.72 15.55L163.47 16.25L163.37 16.95L163.12 17.55L163.02 18.25L162.72 18.9L162.62 19.55L162.47 20.3L162.17 20.9L161.92 21.6L161.82 22.25L161.72 22.9L161.42 23.65L161.17 24.25L161.07 24.95L160.77 25.6L160.52 26.35L160.47 26.95L160.12 27.65L160.02 28.3L159.87 29L159.52 29.6V30.35L159.22 31.05L159.02 31.6L158.72 32.4L158.57 32.95L158.37 33.7L158.27 34.3L157.87 35.05L157.67 35.7L157.52 36.3L158.07 37.05L158.77 37.1L159.52 36.95L160.07 37.05H160.92L161.77 36.35L162.02 35.6L162.32 35L162.37 34.2L162.57 33.55L162.97 32.95L163.17 32.15L163.27 31.6L163.57 30.9L164.02 30.25L164.27 29.55L164.37 28.85L164.82 28.25L164.97 27.6L165.27 26.85L165.52 26.25L166.07 25.65L166.22 24.9L166.57 24.3L167.02 23.75L167.27 23.15L167.72 22.45L168.22 21.9L168.52 21.35L169.02 20.8L169.32 20.35L169.97 19.85L170.37 19.45L170.82 19L171.42 18.7L171.97 18.45L172.62 18.3L173.27 18.15H174.52L175.07 18.45L175.52 18.95L175.82 19.6L176.02 20.95L175.67 21.65L175.72 22.3L175.52 23L175.07 23.7L174.87 24.35L174.77 25L174.32 25.6L174.17 26.35L173.97 27L173.77 27.6L173.32 28.25L173.22 28.9L172.92 29.6L172.77 30.2L172.72 30.95L172.47 31.7L172.32 32.3L172.52 33.8L172.47 34.45L172.87 35.1L173.17 35.8L173.57 36.45L174.02 36.9L174.62 37.25L175.37 37.5L176.07 37.8ZM190.718 10.2L191.168 10.75L192.668 10.85H193.418L193.968 10.75L194.918 10.15L195.068 9.45L195.368 8.7L195.718 8.05L195.818 7.35L196.018 6.7L196.368 6L196.568 5.25L195.918 4.75L195.368 4.8H194.468L193.668 4.9L193.068 4.85L192.118 5.65L191.868 6.2L191.718 6.95L191.168 8.25L190.968 8.8L190.818 9.5L190.718 10.2ZM188.968 37.75L190.368 37.8L191.068 37.6L191.668 37.4L192.368 37.25L192.868 36.8L193.518 36.55L194.018 36.05L194.468 35.65L195.118 35.15L195.468 34.65L196.068 34.2L196.468 33.65L196.768 33.15L197.268 32.6L197.768 32L198.018 31.4L198.618 30.9L198.818 30.25L199.218 29.75L199.618 29.15L200.018 28.6L200.368 27.95L200.618 27.35L200.968 26.85L201.418 26.2L201.268 25.2L200.518 24.75L199.568 24.9L199.168 25.5L198.868 26.15L198.418 26.85L198.118 27.35L197.618 27.95L197.268 28.6L196.818 29.15L196.468 29.8L196.068 30.4L195.668 30.95L195.118 31.4L194.168 32.4L193.518 32.9L193.018 33.3L192.218 33.5L191.718 33.75L190.368 33.65L189.868 33.35L189.418 32.8L189.118 32.1V30.75L189.168 30.05L189.268 29.3L189.418 28.6L189.518 27.95L189.568 27.3L189.768 26.65L190.018 26.05L190.218 25.3L190.368 24.6L190.668 24L190.868 23.3L190.968 22.65L191.318 22.05L191.518 21.3L191.568 20.7L191.768 20.05L192.118 19.45L192.268 18.7L192.618 18L192.668 17.35L193.018 16.75L193.218 16.05L193.368 15.5L192.768 14.7H192.118L191.468 14.75H189.818L189.018 15.55L188.668 16.15L188.518 16.95L188.118 17.65L187.918 18.25L187.868 18.95L187.668 19.75L187.318 20.35L187.168 21.2L187.018 21.85L186.718 22.55L186.368 23.3L186.218 23.9L186.168 24.6L185.968 25.4L185.568 26V26.65L185.368 27.35L185.218 28.05L185.118 28.7L184.918 29.35L184.668 29.9L184.568 30.6L184.718 31.2L184.468 31.85V33.05L184.768 33.75L184.968 34.4L185.118 35.05L185.568 35.75L185.818 36.3L186.468 36.7L187.018 37.1L187.668 37.35L188.318 37.55L188.968 37.75ZM202.655 37.7L204.055 37.75L204.655 37.65L205.455 37.5L205.955 37.2L206.755 36.95L207.855 36.25L208.405 35.8L209.005 35.3L209.455 34.8L209.855 34.35L210.405 33.75L210.655 33.3L211.155 32.7L211.605 32.2L211.955 31.65L212.305 31.05L212.705 30.45L213.055 29.85L213.505 29.25L213.755 28.65L214.155 28.1L214.555 27.5L214.805 26.85L215.305 26.2L214.855 25.1L214.305 24.7L213.255 24.85L212.955 25.45L212.605 26.05L212.305 26.6L212.005 27.35L211.555 27.85L211.055 28.45L210.855 29.05L210.405 29.55L210.005 30.15L209.455 30.75L208.955 31.2L208.455 31.75L208.005 32.15L207.605 32.7L206.955 33.05L206.305 33.4L205.705 33.55L205.255 33.7L203.805 33.65L203.155 33.3L202.805 32.65L202.655 31.85L202.405 30.55L202.655 29.85L202.755 29.2V28.5L202.805 27.7L203.055 27L203.155 26.4L203.355 25.75L203.505 24.95L203.605 24.35L203.955 23.7L204.155 23L204.205 22.35L204.355 21.6L204.605 20.95L204.805 20.2L205.055 19.6L205.105 18.85L205.305 18.25L205.705 17.55V16.95L205.955 16.3L206.255 15.5V14.95L206.655 14.15L206.855 13.5L206.905 12.85L207.205 12.15L207.455 11.55L207.555 10.9L207.705 10.2L208.055 9.6V8.85L208.455 8.15L208.505 7.5L208.805 6.8L209.055 6.2L209.205 5.45L209.305 4.85L209.505 4.15L209.655 3.45L209.905 2.85L210.055 2.2L210.255 1.55L209.805 0.749999L209.255 0.799998L208.405 0.849998L207.805 0.749999L207.005 0.849998L206.155 1.6L205.855 2.25L205.755 2.9L205.505 3.7L205.305 4.4L205.155 5L204.805 5.7L204.705 6.5L204.405 7.1L204.105 7.8L203.955 8.5L203.705 9.3L203.455 9.9L203.355 10.65L203.255 11.3L202.955 12.1L202.755 12.75L202.405 13.5L202.305 14.15L202.155 14.95L201.855 15.55L201.655 16.25L201.555 16.9L201.155 17.65L201.105 18.35L200.855 19.05L200.605 19.75L200.505 20.5L200.355 21.1L200.055 21.8L199.955 22.5L199.755 23.25L199.455 23.95L199.255 24.5L199.205 25.3L199.005 25.95L198.805 26.6L198.855 27.25L198.655 27.95L198.405 28.55L198.455 29.15L198.355 29.75L198.305 30.35L198.055 31L198.205 31.65L198.255 32.95L198.205 33.55L198.555 34.25L198.705 35.05L199.055 35.6L199.605 36.2L200.055 36.7L200.555 37.15L201.255 37.35L201.955 37.55L202.655 37.7ZM225.663 32.2L225.463 31.05L224.913 30.55L223.763 30.7L223.312 31.25L222.713 31.65L222.363 32.1L221.763 32.6L221.163 33.05L220.763 33.35L220.013 33.55L219.463 33.75L218.113 33.6L217.463 33.3L217.163 32.55L216.813 31.9L216.713 30.45L216.763 29.75L216.963 29.15L217.062 28.5V27.7L217.363 27L217.463 26.35L217.613 25.7L217.763 25L217.913 24.35L218.263 23.7L218.363 22.9L218.563 22.35L218.713 21.55L218.863 20.95L218.963 20.2L219.263 19.55L219.413 18.85L219.663 18.25L219.863 17.55L219.913 16.85L220.113 16.2L220.363 15.55L220.663 14.85L220.713 14.2L221.063 13.55L221.313 12.95L221.513 12.15L221.563 11.55L221.763 10.85L222.113 10.25L222.163 9.6L222.413 8.8L222.563 8.2L222.713 7.45L223.063 6.9L223.113 6.15L223.513 5.45L223.563 4.85L223.913 4.15L223.963 3.55L224.263 2.8L224.463 2.1L224.613 1.55L224.163 0.849998L223.413 0.799998H222.063L221.313 0.749999L220.363 1.55L219.863 3L219.813 3.6L219.613 4.3L219.413 5.1L219.113 5.75L218.413 7.85L218.263 8.5L218.113 9.25L217.763 10L217.563 10.7L217.513 11.4L217.213 12L216.963 12.75L216.863 13.4L216.463 14.2L216.413 14.95L216.013 15.6V16.25L215.763 16.9L215.463 17.6L215.413 18.35L215.013 19.1L214.813 19.75L214.663 20.4L214.613 21.1L214.263 21.8L214.163 22.5L213.963 23.25L213.763 23.9L213.563 24.55L213.363 25.25V25.95L213.163 26.6L212.963 27.25L212.763 27.95L212.863 28.55L212.713 29.2L212.513 29.8L212.613 30.4L212.413 30.95L212.513 31.55L212.313 32.9L212.413 33.55L212.613 34.35L213.013 35.05L213.313 35.6L213.813 36.25L214.263 36.6L214.813 37.15L215.563 37.4L216.313 37.55L216.813 37.75L218.313 37.8L218.963 37.6L219.563 37.5L220.313 37.3L220.763 36.9L221.413 36.6L222.063 36.25L222.513 35.75L223.063 35.35L223.563 34.85L223.963 34.35L224.513 33.75L224.813 33.25L225.363 32.7L225.663 32.2Z" fill="#8F97A3"/>
</svg>
